<svg xmlns="http://www.w3.org/2000/svg" viewBox="0 0 54.7 50"><title>Zasób 60zak_</title><g id="Warstwa_2" data-name="Warstwa 2"><g id="Warstwa_1-2" data-name="Warstwa 1"><path d="M27.35,35.14a2.81,2.81,0,0,0,0,5.62,2.81,2.81,0,0,0,0-5.62Z"/><path d="M53.36,45.1a9.61,9.61,0,0,0,0-9.72L35.78,4.89a9.7,9.7,0,0,0-16.84,0L1.31,35.41A9.73,9.73,0,0,0,9.74,50H44.91A9.66,9.66,0,0,0,53.36,45.1Zm-3.82-2.21a5.31,5.31,0,0,1-4.64,2.69H9.73a5.32,5.32,0,0,1-4.6-8L22.76,7.07a5.3,5.3,0,0,1,9.2,0L49.58,37.6A5.24,5.24,0,0,1,49.54,42.89Z"/><path d="M26.65,15.4a3.06,3.06,0,0,0-2.17,3.07c.07.89.12,1.79.19,2.68.19,3.38.38,6.7.57,10.08a2.06,2.06,0,0,0,2.11,2,2.1,2.1,0,0,0,2.1-2,20.16,20.16,0,0,1,.07-2.05c.12-2.17.26-4.34.38-6.51.07-1.4.19-2.81.26-4.22A3.49,3.49,0,0,0,29.9,17,2.82,2.82,0,0,0,26.65,15.4Z"/></g></g></svg>