<svg xmlns="http://www.w3.org/2000/svg" viewBox="0 0 116.82 50"><title>Zasób 82zak_</title><g id="Warstwa_2" data-name="Warstwa 2"><g id="Warstwa_1-2" data-name="Warstwa 1"><polygon points="27.24 38.13 27.24 10.48 0 10.48 27.24 38.13"/><path d="M75.35,8.05A4,4,0,0,0,79.4,4a4,4,0,1,0-4.05,4Z"/><path d="M81,33.47c-.5-.24-2-1-2-6.81V14.17a3.65,3.65,0,1,0-7.3,0V26.66c0,4.42.62,10.64,6,13.35A3.66,3.66,0,0,0,81,33.47Z"/><path d="M101.87,10.47a15,15,0,0,0-15,15v20.9a3.66,3.66,0,1,0,7.31,0V38.22a14.77,14.77,0,0,0,7.67,2.18,15,15,0,0,0,0-29.93Zm0,22.62a7.66,7.66,0,1,1,7.66-7.66A7.68,7.68,0,0,1,101.87,33.09Z"/><path d="M52.89,10.48a15,15,0,0,0-7.69,2.18v-9a3.65,3.65,0,0,0-7.3,0v21.8a15,15,0,1,0,15-15Zm0,22.63a7.66,7.66,0,1,1,7.65-7.66A7.69,7.69,0,0,1,52.89,33.11Z"/></g></g></svg>