<svg xmlns="http://www.w3.org/2000/svg" viewBox="0 0 54.1 50"><title>Zasób 63zak_</title><g id="Warstwa_2" data-name="Warstwa 2"><g id="Warstwa_1-2" data-name="Warstwa 1"><path d="M1.91,50H52.19a1.89,1.89,0,0,0,1.91-1.91V5.45a1.89,1.89,0,0,0-1.91-1.91H42.73V1.91a1.91,1.91,0,1,0-3.82,0V3.54H15.52V1.91a1.91,1.91,0,0,0-3.82,0V3.54H1.91A1.89,1.89,0,0,0,0,5.45V48.14A1.91,1.91,0,0,0,1.91,50ZM3.82,7.36H11.7v1a1.91,1.91,0,0,0,3.82,0v-1H38.91v1a1.91,1.91,0,0,0,3.82,0v-1h7.6V12.3H3.82Zm0,8.76H50.28V46.23H3.82Z"/><path d="M40.82,24.88H13.33a1.91,1.91,0,1,0,0,3.82H40.82a1.91,1.91,0,0,0,0-3.82Z"/><path d="M27.07,34.11H13.33a1.91,1.91,0,0,0,0,3.82H27.07a1.91,1.91,0,0,0,0-3.82Z"/></g></g></svg>