<svg xmlns="http://www.w3.org/2000/svg" viewBox="0 0 94.24 50"><defs><style>.cls-1{fill:#313e52;}</style></defs><title>Zasób 44zak_</title><g id="Warstwa_2" data-name="Warstwa 2"><g id="Warstwa_1-2" data-name="Warstwa 1"><path class="cls-1" d="M49.73,0H14.34a.27.27,0,0,0-.06.53,25.2,25.2,0,0,1,0,48.94.27.27,0,0,0,.06.53H49.73a.27.27,0,0,0,.27-.27V.27A.27.27,0,0,0,49.73,0Z"/><path class="cls-1" d="M82.1,0h-16a.27.27,0,0,0-.26.27V19.13a.28.28,0,0,1-.27.27H51.14a.27.27,0,0,0-.17.47L65.72,32.14a.28.28,0,0,1,.1.21V49.73a.27.27,0,0,0,.26.27h16a.27.27,0,0,0,.27-.27V.27A.27.27,0,0,0,82.1,0Z"/><path class="cls-1" d="M5.22,12.81H.27a.27.27,0,0,0-.27.27V36.92a.27.27,0,0,0,.27.27H5.46A12.19,12.19,0,0,0,17.65,25.24,12.38,12.38,0,0,0,5.22,12.81Z"/><path class="cls-1" d="M88.85,0h-3a.27.27,0,0,0-.27.27V.53a.27.27,0,0,0,.27.27h1V4a.27.27,0,0,0,.27.27h.41A.27.27,0,0,0,87.83,4V.8h1a.27.27,0,0,0,.27-.27V.27A.27.27,0,0,0,88.85,0Z"/><path class="cls-1" d="M94,0h-.87a.28.28,0,0,0-.26.19L92,3h0L91,.18A.26.26,0,0,0,90.75,0h-.87a.27.27,0,0,0-.27.27V4a.27.27,0,0,0,.27.27h.35A.27.27,0,0,0,90.5,4V1.28h0l1,2.84a.27.27,0,0,0,.25.18h.35a.26.26,0,0,0,.25-.18l1-2.87h0V4a.27.27,0,0,0,.27.27H94A.27.27,0,0,0,94.24,4V.27A.27.27,0,0,0,94,0Z"/></g></g></svg>