<svg xmlns="http://www.w3.org/2000/svg" viewBox="0 0 61.57 50"><defs><style>.cls-1{fill:#87aa14;}</style></defs><title>Zasób 78zak_</title><g id="Warstwa_2" data-name="Warstwa 2"><g id="Warstwa_1-2" data-name="Warstwa 1"><path class="cls-1" d="M11.71,14a2.65,2.65,0,0,0-2-2.57H2a2.65,2.65,0,0,0,.65,5.22H9.05A2.65,2.65,0,0,0,11.71,14"/><path class="cls-1" d="M57.84,7.26C54.68,2.54,49.14,0,39.88,0c-1.36,0-2.62.05-3.83.16-.2,0-.4,0-.66,0H35.3l-.25,0c-4.85.57-7.56.59-7.56.59H15a2.66,2.66,0,1,0,0,5.31H26.23a2.65,2.65,0,0,1,.64,5.23,3.3,3.3,0,0,1-.64.07H16.58a2.65,2.65,0,0,0,.65,5.23h2.35a2.66,2.66,0,0,1,0,5.31H7.48a2.66,2.66,0,0,0,0,5.32H19a2.65,2.65,0,1,1,0,5.3H17.7a2.66,2.66,0,1,0,0,5.32h5.17a2.66,2.66,0,1,1,0,5.31H21.76a2.89,2.89,0,1,0,0,5.78h5.9s3.56.1,7.36.49c.78.12,1.59.22,2.42.3h0a4.43,4.43,0,0,0,.76.06c1.22.08,2.49.13,3.84.13a46.2,46.2,0,0,0,16.15-2.81,1.45,1.45,0,0,0,1-1.27.58.58,0,0,0-.08-.36L58,41.38c-.28-.82-.64-1.09-1.19-1.09a1,1,0,0,0-.45.09,44.26,44.26,0,0,1-13,2.18c-5.44,0-9.16-.82-11.7-3.27-2.18-2.08-3.27-4.63-3.36-9.07H59.93a1.63,1.63,0,0,0,1.54-1.73c.1-1.35.1-3.17.1-4.35C61.57,17.06,60.75,11.35,57.84,7.26ZM51.08,25.82a5,5,0,1,1,4.79-6.35,2,2,0,1,0-1.49,3.4,2,2,0,0,0,1.49-.66A5,5,0,0,1,51.08,25.82Z"/></g></g></svg>