<svg xmlns="http://www.w3.org/2000/svg" viewBox="0 0 47.67 50"><defs><style>.cls-1{fill:#0eab69;}.cls-1,.cls-2,.cls-3,.cls-4,.cls-5,.cls-7{fill-rule:evenodd;}.cls-2{fill:#ffe13f;}.cls-3{fill:#5c84c3;}.cls-4{fill:#fff;}.cls-5{fill:#d2d2d2;}.cls-6{fill:#f0f0f0;}.cls-7{fill:#e14e3c;}.cls-8{fill:#883129;}</style></defs><title>Zasób 75zak_</title><g id="Warstwa_2" data-name="Warstwa 2"><g id="Warstwa_1-2" data-name="Warstwa 1"><path class="cls-1" d="M0,45.51V10A3.75,3.75,0,0,1,3.74,6.25H39.26Z"/><path class="cls-2" d="M0,46.26v-.75L39.26,6.25H40A3.75,3.75,0,0,1,43.75,10v.75L4.49,50H3.74A3.75,3.75,0,0,1,0,46.26Z"/><polygon class="cls-3" points="4.49 50 21.87 32.61 39.26 50 4.49 50"/><path class="cls-4" d="M39.26,50,21.61,32.35l4.49-4.49L43.75,45.51v.75A3.75,3.75,0,0,1,40,50Z"/><polygon class="cls-5" points="43.75 45.51 26.36 28.13 43.75 10.74 43.75 45.51"/><path class="cls-6" d="M16.78,15.7H10.92v2h3.47a3.66,3.66,0,1,1-3.47-4.84,3.63,3.63,0,0,1,2.39.9l1.62-1.59a5.92,5.92,0,1,0,1.79,5.53,5.66,5.66,0,0,0,.12-1.17A6.11,6.11,0,0,0,16.78,15.7Z"/><path class="cls-7" d="M35.91,37.43h0a.64.64,0,0,1-.64-.61,26.06,26.06,0,0,0-4.31-12.06c-2.57-4.26-6.81-9-6.81-13.66C24.13,5.2,29,0,35.88,0h0c6.92,0,11.75,5.2,11.75,11.1,0,4.68-4.24,9.4-6.81,13.66a26.06,26.06,0,0,0-4.31,12.06A.65.65,0,0,1,35.91,37.43Z"/><circle class="cls-8" cx="35.9" cy="11.24" r="4.05"/></g></g></svg>