<svg xmlns="http://www.w3.org/2000/svg" viewBox="0 0 78.14 50"><defs><style>.cls-1{fill:#f34a38;}</style></defs><title>Zasób 74zak_</title><g id="Warstwa_2" data-name="Warstwa 2"><g id="Warstwa_1-2" data-name="Warstwa 1"><path class="cls-1" d="M27.42,30.16H39.63a15.52,15.52,0,1,1-4.22-16.65,1.68,1.68,0,0,0,2.29,0l4.48-4.22a1.68,1.68,0,0,0,0-2.44A24.93,24.93,0,0,0,25.5,0,25,25,0,1,0,50,26.41c0-.17,0-5.74,0-5.74H27.42a1.68,1.68,0,0,0-1.68,1.67v6.14A1.68,1.68,0,0,0,27.42,30.16Z"/><path class="cls-1" d="M70.68,21.23v-6a1.47,1.47,0,0,0-1.47-1.47h-5a1.47,1.47,0,0,0-1.47,1.47v6h-6a1.46,1.46,0,0,0-1.47,1.46v5a1.47,1.47,0,0,0,1.47,1.47h6v6a1.47,1.47,0,0,0,1.47,1.47h5a1.47,1.47,0,0,0,1.47-1.47v-6h6a1.46,1.46,0,0,0,1.46-1.47v-5a1.46,1.46,0,0,0-1.46-1.46Z"/></g></g></svg>