<svg xmlns="http://www.w3.org/2000/svg" viewBox="0 0 76.32 50"><defs><style>.cls-1{fill:#41479b;}.cls-2{fill:#f5f5f5;}.cls-3{fill:#ff4b55;}</style></defs><title>Zasób 73zak_</title><g id="Warstwa_2" data-name="Warstwa 2"><g id="Warstwa_1-2" data-name="Warstwa 1"><path class="cls-1" d="M70.6,0H5.72A5.72,5.72,0,0,0,0,5.72V44.28A5.72,5.72,0,0,0,5.72,50H70.6a5.72,5.72,0,0,0,5.72-5.72V5.72A5.72,5.72,0,0,0,70.6,0Z"/><path class="cls-2" d="M76.24,4.77A5.72,5.72,0,0,0,70.6,0H69.11L44.74,16V0H31.58V16L7.2,0H5.72A5.71,5.71,0,0,0,.08,4.77L20.91,18.42H0V31.58H20.91L.08,45.23A5.71,5.71,0,0,0,5.72,50H7.2L31.58,34V50H44.74V34L69.11,50H70.6a5.72,5.72,0,0,0,5.64-4.77L55.4,31.58H76.32V18.42H55.4Z"/><polygon class="cls-3" points="42.1 0 34.21 0 34.21 21.05 0 21.05 0 28.95 34.21 28.95 34.21 50 42.1 50 42.1 28.95 76.31 28.95 76.31 21.05 42.1 21.05 42.1 0"/><path class="cls-3" d="M3.7,49.63,31.51,31.58H26.67L1.37,48A5.73,5.73,0,0,0,3.7,49.63Z"/><path class="cls-3" d="M51.63,31.58H46.8L73.73,49.06a5.52,5.52,0,0,0,1.83-2Z"/><path class="cls-3" d="M.6,3.16,24.11,18.42H29L2.31,1.13A5.79,5.79,0,0,0,.6,3.16Z"/><path class="cls-3" d="M49.57,18.42,74.91,2A5.68,5.68,0,0,0,72.57.35L44.74,18.42Z"/></g></g></svg>