<svg xmlns="http://www.w3.org/2000/svg" xmlns:xlink="http://www.w3.org/1999/xlink" viewBox="0 0 50 50"><defs><style>.cls-1{fill:url(#Gradient_bez_nazwy_3);}.cls-2{fill:url(#Gradient_bez_nazwy_3-3);}</style><linearGradient id="Gradient_bez_nazwy_3" x1="25" y1="15878.83" x2="25" y2="15829.37" gradientTransform="translate(0 -15828.98)" gradientUnits="userSpaceOnUse"><stop offset="0" stop-color="#e09b3d"/><stop offset="0.3" stop-color="#c74c4d"/><stop offset="0.6" stop-color="#c21975"/><stop offset="1" stop-color="#7024c4"/></linearGradient><linearGradient id="Gradient_bez_nazwy_3-3" x1="37.96" y1="15878.83" x2="37.96" y2="15829.37" xlink:href="#Gradient_bez_nazwy_3"/></defs><title>Zasób 76zak_</title><g id="Warstwa_2" data-name="Warstwa 2"><g id="Warstwa_1-2" data-name="Warstwa 1"><path class="cls-1" d="M35.1,0H14.9A14.91,14.91,0,0,0,0,14.9V35.1A14.91,14.91,0,0,0,14.9,50H35.1A14.91,14.91,0,0,0,50,35.1V14.9A14.91,14.91,0,0,0,35.1,0ZM45,35.1A9.87,9.87,0,0,1,35.1,45H14.9A9.87,9.87,0,0,1,5,35.1V14.9A9.87,9.87,0,0,1,14.9,5H35.1A9.87,9.87,0,0,1,45,14.9V35.1Z"/><path class="cls-1" d="M25,12.07A12.93,12.93,0,1,0,37.93,25,12.94,12.94,0,0,0,25,12.07ZM25,32.9A7.9,7.9,0,1,1,32.9,25,7.9,7.9,0,0,1,25,32.9Z"/><circle class="cls-2" cx="37.96" cy="12.17" r="3.1"/></g></g></svg>