<svg xmlns="http://www.w3.org/2000/svg" viewBox="0 0 50 50"><title>Zasób 58zak_</title><g id="Warstwa_2" data-name="Warstwa 2"><g id="Warstwa_1-2" data-name="Warstwa 1"><g id="language"><path d="M25,0A25,25,0,1,0,50,25,25.07,25.07,0,0,0,25,0ZM42.25,15H35a39.51,39.51,0,0,0-3.5-9A20.12,20.12,0,0,1,42.25,15ZM25,5a33.57,33.57,0,0,1,4.75,10h-9.5A36.76,36.76,0,0,1,25,5ZM5.75,30A16.12,16.12,0,0,1,5,25a16.12,16.12,0,0,1,.75-5h8.5A33.51,33.51,0,0,0,14,25c0,1.75.25,3.25.25,5Zm2,5H15a39.51,39.51,0,0,0,3.5,9A20.12,20.12,0,0,1,7.75,35ZM15,15H7.75A21.07,21.07,0,0,1,18.5,6,39.51,39.51,0,0,0,15,15ZM25,45a33.57,33.57,0,0,1-4.75-10h9.5A36.76,36.76,0,0,1,25,45Zm5.75-15H19.25a33.88,33.88,0,0,1-.5-5,33.88,33.88,0,0,1,.5-5H31a33.88,33.88,0,0,1,.5,5A34.51,34.51,0,0,1,30.75,30Zm.75,14A35.47,35.47,0,0,0,35,35h7.25A20.12,20.12,0,0,1,31.5,44ZM36,30a33.51,33.51,0,0,0,.25-5c0-1.75-.25-3.25-.25-5h8.5a16.12,16.12,0,0,1,.75,5,16.12,16.12,0,0,1-.75,5Z"/></g></g></g></svg>