<?xml version="1.0" encoding="utf-8"?>
<!-- Generator: Adobe Illustrator 16.0.0, SVG Export Plug-In . SVG Version: 6.00 Build 0)  -->
<!DOCTYPE svg PUBLIC "-//W3C//DTD SVG 1.1//EN" "http://www.w3.org/Graphics/SVG/1.1/DTD/svg11.dtd">
<svg version="1.1" id="Warstwa_1" xmlns="http://www.w3.org/2000/svg" xmlns:xlink="http://www.w3.org/1999/xlink" x="0px" y="0px"
	 width="567px" height="560px" viewBox="0 0 567 560" enable-background="new 0 0 567 560" xml:space="preserve">
<title>Zasób 61zak_</title>
<g id="Warstwa_2">
	<g id="Warstwa_1-2">
		<path d="M565,510.221l-68.361-68.363l-54.427-54.427c77.743-108.665,52.678-259.78-55.989-337.524
			C277.557-27.837,126.441-2.769,48.697,105.897c-77.744,108.667-52.676,259.782,55.99,337.526
			c86.75,62.063,203.91,59.988,288.41-5.104l93.475,93.475c1.176,1.125,2.433,2.157,3.761,3.099L515.11,560L565,510.221z
			 M245.638,432.783c-102.149,0.265-185.17-82.333-185.433-184.479c-0.263-102.148,82.333-185.17,184.482-185.433
			c102.147-0.264,185.17,82.333,185.433,184.48c0.105,41.077-13.466,81.019-38.573,113.529
			c-7.936,10.292-16.904,19.742-26.771,28.209c-33.284,28.188-75.521,43.601-119.139,43.474L245.638,432.783L245.638,432.783z"/>
	</g>
</g>
</svg>
