<svg xmlns="http://www.w3.org/2000/svg" viewBox="0 0 225 230.98"><defs><style>.cls-1{fill:#236a7a;}</style></defs><title>Zasób 1zak_</title><g id="Warstwa_2" data-name="Warstwa 2"><g id="Warstwa_1-2" data-name="Warstwa 1"><path class="cls-1" d="M176.16,38.8a48.84,48.84,0,0,0-4.87,97.44c-24.35,28.63-51.92,53-58.79,58.92-4.32-3.74-16.82-14.75-31.56-29.52a2.48,2.48,0,0,0-1.68-1.7c-8.24-8.32-17.09-17.75-25.55-27.7A48.84,48.84,0,1,0,0,87.71c0,22.91,18.74,53.83,55.71,91.89,7,7.27,14.13,14.12,20.76,20.28a2.59,2.59,0,0,0,.82.76c18.63,17.26,33.46,29,33.67,29.12L112.5,231l1.54-1.22c.21-.16,15.22-12,34-29.43l.12-.11C154.89,194,162.1,187,169.29,179.6c37-38.06,55.71-69,55.71-92A48.9,48.9,0,0,0,176.16,38.8ZM43.54,84.32c.23.5.49,1,.74,1.47-.55,0-1.1.06-1.66.11-10.38-1.09-21.08-7.62-26.54-16.38C26.4,69.87,37.4,75.87,43.54,84.32Zm5.25-33.69c4.85,9.11,5.16,21.63.92,31.17-.32.45-.63.91-.92,1.37-.3-.46-.6-.92-.92-1.36C43.63,72.26,43.93,59.74,48.79,50.63ZM81.5,69.52C76,78.28,65.34,84.81,55,85.9c-.55-.05-1.11-.09-1.66-.11.25-.49.52-1,.75-1.47C60.18,75.87,71.18,69.87,81.5,69.52ZM54,92.49c-.24-.51-.5-1-.76-1.49.54,0,1.08,0,1.62-.1C65.3,92,76,98.51,81.5,107.29,71.18,106.94,60.18,100.94,54,92.49Zm-5.25,33.68c-4.87-9.12-5.16-21.67-.9-31.22.32-.44.61-.9.9-1.35.29.45.58.91.89,1.35C54,104.5,53.65,117.05,48.79,126.17ZM44.29,91c-.25.49-.52,1-.75,1.49-6.14,8.45-17.14,14.45-27.46,14.8C21.55,98.51,32.27,92,42.67,90.9,43.21,91,43.75,91,44.29,91Zm-3.75,11.72c-1.6,10.14.33,21.2,5.84,29.08l.18.26a2.5,2.5,0,0,0-.27,1.12V162.1c-14.51-16.27-27.69-33.76-35.08-50l1.2.11c.87.07,1.74.11,2.62.11C23.88,112.3,33.27,108.59,40.54,102.72ZM51.29,141.1c6.91,8,14,15.72,20.85,22.73H51.29ZM110,222.56c-5-4.07-14-11.7-24.89-21.57H110ZM115,201h24.89c-10.84,9.87-19.93,17.5-24.89,21.57Zm28.38-93.7C148.85,98.51,159.57,92,170,90.9c.54,0,1.08.08,1.62.1-.25.49-.52,1-.75,1.49C164.69,100.94,153.7,106.94,143.38,107.29Zm27.46-23c.23.5.49,1,.74,1.47-.55,0-1.11.06-1.66.11-10.39-1.09-21.08-7.62-26.54-16.38C153.7,69.87,164.7,75.87,170.84,84.32Zm5.24-33.69c4.86,9.12,5.17,21.63.92,31.18-.31.44-.62.9-.91,1.36-.3-.46-.61-.92-.92-1.37C170.92,72.26,171.23,59.74,176.08,50.63Zm32.71,18.89c-5.46,8.76-16.15,15.29-26.54,16.38-.56-.05-1.11-.09-1.66-.11.25-.49.51-1,.74-1.47C187.48,75.87,198.48,69.87,208.79,69.52Zm-27.46,23c-.23-.51-.5-1-.75-1.49.54,0,1.08,0,1.62-.1,10.4,1.08,21.12,7.61,26.6,16.39C198.47,106.94,187.48,100.94,181.33,92.49ZM175.19,95c.31-.44.6-.9.9-1.35.29.45.58.91.89,1.35,4.27,9.55,4,22.1-.9,31.22C171.22,117.05,170.92,104.5,175.19,95Zm-.75,69.44H152.31c7.22-7.41,14.81-15.57,22.13-24.14Zm3.86-32.31.19-.28c5.51-7.88,7.44-18.94,5.85-29.08,7.26,5.87,16.65,9.58,25.5,9.58.88,0,1.76,0,2.62-.11l1.35-.12c-7.26,16-20.14,33.17-34.37,49.22V134.17A2.5,2.5,0,0,0,178.3,132.08ZM214.87,108c-4.07-8.71-12.67-15.92-22.24-19.61,9.57-3.69,18.17-10.91,22.24-19.62l.41-.87A43.72,43.72,0,0,1,220,87.71c0,6.56-1.74,13.66-4.77,21.07Zm-1.38-43.31-1-.09c-9.58-.83-20.14,3-28.12,9.47C185.93,64,184,52.89,178.49,45l-.81-1.17A43.81,43.81,0,0,1,213.49,64.71Zm-39-20.87L173.68,45c-5.51,7.88-7.44,18.94-5.85,29.09-8-6.46-18.54-10.31-28.12-9.48l-.89.08A43.85,43.85,0,0,1,174.49,43.84ZM137,68.05l.35.74c4.07,8.71,12.67,15.92,22.24,19.62C150,92.09,141.41,99.28,137.33,108A43.65,43.65,0,0,1,137,68.05Zm2.91,44.15c.82.07,1.64.1,2.47.1,8.85,0,18.24-3.71,25.5-9.58-1.57,10,.29,20.82,5.59,28.67A43.85,43.85,0,0,1,139.86,112.2Zm4,60.68V196H119.14C124.43,191.32,133.42,183.17,143.86,172.88Zm-38,23.11H81.05v-23.2C91.53,183.13,100.56,191.31,105.86,196ZM51.45,131.4c5.3-7.85,7.16-18.7,5.59-28.68,7.26,5.87,16.66,9.58,25.5,9.58.88,0,1.75,0,2.61-.11A43.86,43.86,0,0,1,51.45,131.4Zm36.16-23.31,0-.07C83.51,99.31,74.9,92.1,65.33,88.41,74.9,84.72,83.51,77.5,87.58,68.79l.4-.87a43.75,43.75,0,0,1-.37,40.17ZM86.19,64.71l-1-.09c-9.59-.83-20.15,3-28.13,9.47C58.64,64,56.7,52.89,51.2,45l-.82-1.17A43.83,43.83,0,0,1,86.19,64.71Zm-39-20.87L46.38,45C40.87,52.89,38.94,64,40.54,74.1c-8-6.46-18.55-10.31-28.13-9.48l-.91.08A43.86,43.86,0,0,1,47.19,43.84ZM9.65,68l.35.76c4.07,8.71,12.67,15.93,22.24,19.62C22.67,92.1,14.07,99.31,10,108l-.28.59c-3-7.36-4.72-14.43-4.72-21A43.55,43.55,0,0,1,9.65,68Zm42.78,100.8H76.05v23.74C68.42,185.35,60.33,177.31,52.43,168.83Zm96.43,23.83V169.39h23.2C164.29,177.7,156.35,185.57,148.86,192.66Z"/><path class="cls-1" d="M67.59,38.38a16.3,16.3,0,0,0,5.12,2.78l.36.1a9.71,9.71,0,0,0,1.18.3l.13,0a6.19,6.19,0,0,0,.64.12l.63.08a12.37,12.37,0,0,0,1.62.09,14,14,0,0,0,1.43-.08A14.16,14.16,0,0,0,88.88,36a12.74,12.74,0,0,0,.83-1.35l.11-.21c.13-.25.15-.31.16-.32l.17-.41a4.59,4.59,0,0,0,.22-.56A12.27,12.27,0,0,0,91.05,30a13,13,0,0,0-1-6,12.16,12.16,0,0,0-1.54-2.69l-.08-.11a10.92,10.92,0,0,0-2.26-2.17,10.34,10.34,0,0,0-6.26-2,9.4,9.4,0,0,0-1.76.2l-.35.09-.51.15a9.1,9.1,0,0,0-.86.33,9.53,9.53,0,0,0-2.81,1.91,11.69,11.69,0,0,0-3.09,5.38l-.16.71c0,.22-.09.45-.12.67a14.36,14.36,0,0,0-.14,1.44,2.5,2.5,0,0,0,5,.25,7.42,7.42,0,0,1,.09-1c0-.15.05-.28.08-.43l.1-.42a6.49,6.49,0,0,1,1.73-3,4.64,4.64,0,0,1,1.29-.91l.44-.17.37-.1a3.53,3.53,0,0,1,.78-.09,5.2,5.2,0,0,1,3.31,1.09,6.12,6.12,0,0,1,1.23,1.21A7.66,7.66,0,0,1,85.48,26a8,8,0,0,1,.59,3.66,7.31,7.31,0,0,1-.41,1.89l-.06.17c0,.09-.09.18-.1.22l-.17.37a8.18,8.18,0,0,1-.51.84,9.34,9.34,0,0,1-6.7,3.73c-.26,0-.59,0-.92.05s-.7,0-1-.05l-.58-.08-.2,0-.31-.06a5.09,5.09,0,0,1-.67-.18l-.24-.07a11.44,11.44,0,0,1-3.55-1.93,13.28,13.28,0,0,1-4.49-6.83,14.13,14.13,0,0,1-.55-4.15,13.46,13.46,0,0,1,.2-2.16,12.9,12.9,0,0,1,.41-1.7l.08-.29a14.7,14.7,0,0,1,1.85-3.7,16,16,0,0,1,2.89-3.16,18.9,18.9,0,0,1,7.6-3.88l.1,0c.43-.12.92-.2,1.44-.29l.59-.1.53,0A14.51,14.51,0,0,1,82.83,8H83a18.62,18.62,0,0,1,4.24.45,23.89,23.89,0,0,1,7.93,3.36,30.67,30.67,0,0,1,11,13.11,49,49,0,0,1,3.9,14.5V85.23a127.37,127.37,0,0,1-2,18.13c-.21,1.1-.43,2.16-.66,3.19L107,108.2c-.08.33-.16.63-.24.94l-.15.58c-.45,1.79-1,3.67-1.76,5.9A71.17,71.17,0,0,1,100.42,126a61.52,61.52,0,0,1-5.24,8.41l-.07.09c-.56.82-1.2,1.6-1.82,2.35-.3.37-.6.73-.89,1.1s-.55.62-.83.92l-.5.55-.48.53c-.28.3-.54.59-.79.82l-.08.08a50.14,50.14,0,0,1-9.15,7.31l-.11.07c-.5.33-1,.59-1.43.84l-2.2,1.21a2.5,2.5,0,1,0,2.42,4.37l2.16-1.19a19,19,0,0,0,1.8-1.06,54.82,54.82,0,0,0,10-8c.4-.37.75-.76,1.08-1.13l.45-.49.5-.55c.33-.35.65-.71,1-1.08l.06-.09.87-1.06c.67-.82,1.36-1.67,2-2.63a65.55,65.55,0,0,0,5.65-9.06,74.51,74.51,0,0,0,4.78-11.16c.15-.44.29-.86.42-1.28v66.92a2.5,2.5,0,0,0,5,0V115.93c.14.42.27.84.42,1.28a76,76,0,0,0,4.78,11.16,67.52,67.52,0,0,0,5.65,9.06c.67,1,1.37,1.81,2,2.63l.86,1.06.07.09c.32.37.65.73,1,1.08l.54.59.41.45c.34.37.68.76,1.09,1.13a54.83,54.83,0,0,0,10,8,20.35,20.35,0,0,0,1.78,1.05l2.18,1.2A2.53,2.53,0,0,0,147,155a2.5,2.5,0,0,0,1.22-4.68L146,149.09a14.36,14.36,0,0,1-1.4-.82l-.11-.07a49.79,49.79,0,0,1-9.16-7.31l-.08-.08c-.24-.23-.5-.52-.78-.82s-.32-.36-.45-.49l-.53-.59-.84-.92c-.28-.37-.58-.73-.89-1.1-.61-.75-1.25-1.53-1.81-2.35l-.07-.09a61.51,61.51,0,0,1-5.25-8.41,71.17,71.17,0,0,1-4.46-10.42c-.74-2.23-1.3-4.11-1.75-5.92l-.15-.54c-.08-.31-.17-.62-.25-1l-.37-1.59c-.23-1.06-.46-2.12-.66-3.22a125.87,125.87,0,0,1-2-18.13V39.46A49,49,0,0,1,119,24.94a30.53,30.53,0,0,1,11-13.08,23.53,23.53,0,0,1,7.94-3.36A18,18,0,0,1,142.1,8h.15a14.51,14.51,0,0,1,1.48.09l.54,0,.58.1a14,14,0,0,1,1.44.29l.11,0A19,19,0,0,1,154,12.49a16.6,16.6,0,0,1,2.85,3.13,14.88,14.88,0,0,1,1.87,3.72l.08.29a15.16,15.16,0,0,1,.42,1.75,14.77,14.77,0,0,1,.18,2.11,14.58,14.58,0,0,1-.54,4.16,13.35,13.35,0,0,1-4.52,6.84,11.42,11.42,0,0,1-3.52,1.91l-.24.07a4.84,4.84,0,0,1-.68.18l-.3.06-.22,0-.5.07c-.32,0-.72.06-1,.06h0c-.35,0-.68,0-1-.06a9.3,9.3,0,0,1-6.66-3.77,8,8,0,0,1-.48-.8l-.14-.3-.15-.35,0-.1a7.37,7.37,0,0,1-.4-1.85,8,8,0,0,1,.6-3.73,7.6,7.6,0,0,1,.9-1.57,6.57,6.57,0,0,1,1.31-1.26,5.46,5.46,0,0,1,3.21-1,3.57,3.57,0,0,1,.8.09l.37.1.37.14a4.8,4.8,0,0,1,1.35.93,6.46,6.46,0,0,1,1.73,3l.11.47c0,.13,0,.26.08.46s.07.62.09.93a2.5,2.5,0,1,0,5-.25,12.23,12.23,0,0,0-.13-1.39c0-.27-.08-.5-.12-.7l-.18-.77a11.57,11.57,0,0,0-3.08-5.34,9.57,9.57,0,0,0-2.87-1.94c-.26-.11-.55-.22-.79-.3l-.51-.15-.35-.09a9.51,9.51,0,0,0-1.78-.2A10.52,10.52,0,0,0,139,19a11.12,11.12,0,0,0-2.33,2.23l-.09.11A12.45,12.45,0,0,0,135,24a13,13,0,0,0-1,6,11.83,11.83,0,0,0,.66,3.08,4.86,4.86,0,0,0,.23.59l.17.38a4.11,4.11,0,0,0,.2.42l.07.12a10.33,10.33,0,0,0,.8,1.32,14.68,14.68,0,0,0,11.72,5.91,15.77,15.77,0,0,0,1.61-.09l.55-.08a6.67,6.67,0,0,0,.66-.12l.12,0a12.23,12.23,0,0,0,1.19-.31l.35-.1a16.21,16.21,0,0,0,5.11-2.77A18.32,18.32,0,0,0,163.69,29a19.44,19.44,0,0,0,.73-5.58,17.88,17.88,0,0,0-.24-2.79,18.78,18.78,0,0,0-.55-2.37l-.15-.49a20,20,0,0,0-2.54-5.06,21.47,21.47,0,0,0-3.73-4.06,23.83,23.83,0,0,0-9.57-4.89,17,17,0,0,0-2-.41l-.62-.11-.85-.09A20.46,20.46,0,0,0,142.14,3a24.43,24.43,0,0,0-5.31.56,28.68,28.68,0,0,0-9.62,4.06A35.28,35.28,0,0,0,115,21.58V2.5a2.5,2.5,0,0,0-5,0V21.58A35.36,35.36,0,0,0,97.88,7.65,28.82,28.82,0,0,0,88.25,3.6,24.53,24.53,0,0,0,83,3a20.31,20.31,0,0,0-2.06.11l-.6.06-.26,0-.61.11a17,17,0,0,0-2,.41,23.81,23.81,0,0,0-9.56,4.87,21.87,21.87,0,0,0-3.76,4.1,20.15,20.15,0,0,0-2.53,5l-.14.49a16.72,16.72,0,0,0-.55,2.32,20.52,20.52,0,0,0-.25,2.83A19.47,19.47,0,0,0,61.39,29,18.3,18.3,0,0,0,67.59,38.38Z"/><path class="cls-1" d="M122.27,47.48A4.74,4.74,0,1,0,127,42.75,4.74,4.74,0,0,0,122.27,47.48Z"/><path class="cls-1" d="M97.27,42.75A4.73,4.73,0,1,0,102,47.48,4.73,4.73,0,0,0,97.27,42.75Z"/><circle class="cls-1" cx="34.58" cy="124.03" r="2.82"/><path class="cls-1" d="M189.7,126.85a2.82,2.82,0,1,0-2.83-2.82A2.83,2.83,0,0,0,189.7,126.85Z"/></g></g></svg>