<svg xmlns="http://www.w3.org/2000/svg" viewBox="0 0 45.17 50"><defs><style>.cls-1{fill:#2196f3;}</style></defs><title>Zasób 84zak_</title><g id="Warstwa_2" data-name="Warstwa 2"><g id="Warstwa_1-2" data-name="Warstwa 1"><path class="cls-1" d="M39.07,12l.77-.77.32.32a2.43,2.43,0,0,0,3.39,0,2.38,2.38,0,0,0,.7-1.69,2.42,2.42,0,0,0-.7-1.7l-4-4a2.4,2.4,0,0,0-3.39,3.4l.32.31-1,1A22.46,22.46,0,0,0,25,5V4.79h3.14a2.37,2.37,0,0,0,2.4-2.39A2.38,2.38,0,0,0,28.17,0H16.84a2.37,2.37,0,0,0-2.4,2.4,2.37,2.37,0,0,0,2.4,2.39h3.39V5A22.58,22.58,0,1,0,45.17,27.42,22.39,22.39,0,0,0,39.07,12Zm1.35,15.49A17.84,17.84,0,1,1,22.59,9.62,17.85,17.85,0,0,1,40.42,27.46Z"/><path class="cls-1" d="M22.59,14.15a2.37,2.37,0,0,0-2.4,2.39V27.16a2.21,2.21,0,0,0,.47,1.32,2.3,2.3,0,0,0,1.93,1A2.37,2.37,0,0,0,25,27.12V16.5a2.26,2.26,0,0,0-.49-1.36A2.33,2.33,0,0,0,22.59,14.15Z"/></g></g></svg>