<svg xmlns="http://www.w3.org/2000/svg" viewBox="0 0 238.92 45.4"><defs><style>.cls-1{fill:#424242;}</style></defs><title>Zasób 47zak_</title><g id="Warstwa_2" data-name="Warstwa 2"><g id="Warstwa_1-2" data-name="Warstwa 1"><path class="cls-1" d="M82.36,21.34H16.15a1.32,1.32,0,0,0-.53.11L9.11,15,2.32,8.16A1.36,1.36,0,0,0,.4,10.08l5.83,5.83L.4,21.74a1.36,1.36,0,0,0,0,1.92l5.83,5.83L.4,35.32a1.36,1.36,0,0,0,0,1.92,1.32,1.32,0,0,0,1,.4,1.34,1.34,0,0,0,1-.4l6.79-6.79,6.51-6.51a1.18,1.18,0,0,0,.53.12H82.36a1.36,1.36,0,0,0,0-2.72ZM8.15,27.57,3.28,22.7l4.87-4.87L13,22.7Z"/><path class="cls-1" d="M238.52,21.74l-5.83-5.83,5.83-5.83a1.36,1.36,0,0,0-1.92-1.92L229.81,15l-6.39,6.39H157.78a1.36,1.36,0,0,0,0,2.72h65.64l6.39,6.39,6.79,6.79a1.34,1.34,0,0,0,1,.4,1.32,1.32,0,0,0,1-.4,1.36,1.36,0,0,0,0-1.92l-5.83-5.83,5.83-5.83A1.36,1.36,0,0,0,238.52,21.74Zm-7.75,5.83L225.9,22.7l4.87-4.87,4.87,4.87Z"/><path class="cls-1" d="M131.09,11.07,120.42.4a1.36,1.36,0,0,0-1.92,0L107.83,11.07,97.16,21.74a1.36,1.36,0,0,0,0,1.92l10.67,10.67L118.5,45a1.34,1.34,0,0,0,1,.4,1.32,1.32,0,0,0,1-.4l10.67-10.67,10.67-10.67a1.36,1.36,0,0,0,0-1.92ZM119.46,3.28,128.21,12l-8.75,8.75L110.71,12ZM100,22.7,108.79,14l8.75,8.75-8.75,8.75Zm19.42,19.42-8.75-8.75,8.75-8.75,8.75,8.75Zm10.67-10.67-8.75-8.75L130.13,14l8.75,8.75Z"/></g></g></svg>