<svg xmlns="http://www.w3.org/2000/svg" viewBox="0 0 238.92 44.2"><defs><style>.cls-1{fill:#424242;}</style></defs><title>Zasób 46zak_</title><g id="Warstwa_2" data-name="Warstwa 2"><g id="Warstwa_1-2" data-name="Warstwa 1"><path class="cls-1" d="M82.36,20.74H16.15a1.32,1.32,0,0,0-.53.11l-6.51-6.5L2.32,7.56A1.36,1.36,0,1,0,.4,9.48l5.83,5.83L.4,21.14a1.36,1.36,0,0,0,0,1.92l5.83,5.83L.4,34.72a1.36,1.36,0,0,0,1,2.32,1.38,1.38,0,0,0,1-.4l6.79-6.79,6.51-6.51a1.33,1.33,0,0,0,.53.12H82.36a1.36,1.36,0,0,0,0-2.72ZM8.15,27,3.28,22.1l4.87-4.87L13,22.1Z"/><path class="cls-1" d="M238.52,21.14l-5.83-5.83,5.83-5.83a1.36,1.36,0,1,0-1.92-1.92l-6.79,6.79-6.39,6.39H157.78a1.36,1.36,0,0,0,0,2.72h65.64l6.39,6.39,6.79,6.79a1.38,1.38,0,0,0,1,.4,1.36,1.36,0,0,0,1-2.32l-5.83-5.83,5.83-5.83A1.36,1.36,0,0,0,238.52,21.14ZM230.77,27,225.9,22.1l4.87-4.87,4.87,4.87Z"/><path class="cls-1" d="M132.09,4.48a10.52,10.52,0,0,0-6,19.19,79.13,79.13,0,0,1-6.79,6.84,81.5,81.5,0,0,1-6.67-6.7,10.54,10.54,0,1,0-16.36-8.76c0,11.17,21.43,28.14,22.34,28.86a1.36,1.36,0,0,0,1.68,0c.91-.72,22.34-17.69,22.34-28.87A10.57,10.57,0,0,0,132.09,4.48ZM119.46,41.1C113,35.89,99,22.87,99,15a7.84,7.84,0,1,1,11.13,7.07,1.35,1.35,0,0,0-.69,1.65,1.32,1.32,0,0,0,.29.82,76.71,76.71,0,0,0,8.71,8.77,1.36,1.36,0,0,0,.87.32,1.4,1.4,0,0,0,.88-.32,78.77,78.77,0,0,0,8.72-8.78.75.75,0,0,0,.06-.13,1.25,1.25,0,0,0,.47-.52,1.36,1.36,0,0,0-.65-1.81,7.82,7.82,0,1,1,11.13-7.06C139.92,22.87,125.88,35.89,119.46,41.1Z"/><path class="cls-1" d="M119.32,21.62A1.36,1.36,0,0,0,118,23v1.69a1.36,1.36,0,1,0,2.72,0V23A1.36,1.36,0,0,0,119.32,21.62Z"/><path class="cls-1" d="M114,2.59a7.86,7.86,0,0,1,4.16,4.7,1.36,1.36,0,0,0,2.58,0,7.86,7.86,0,0,1,4.16-4.7A1.36,1.36,0,0,0,123.76.13a10.65,10.65,0,0,0-4.3,3.67,10.59,10.59,0,0,0-4.3-3.67A1.36,1.36,0,0,0,114,2.59Z"/></g></g></svg>