<svg xmlns="http://www.w3.org/2000/svg" viewBox="0 0 238.92 48.39"><defs><style>.cls-1{fill:#424242;}</style></defs><title>Zasób 48zak_</title><g id="Warstwa_2" data-name="Warstwa 2"><g id="Warstwa_1-2" data-name="Warstwa 1"><path class="cls-1" d="M82.36,23.67H16.15a1.32,1.32,0,0,0-.53.11l-6.51-6.5L2.32,10.49a1.34,1.34,0,0,0-1.92,0,1.36,1.36,0,0,0,0,1.92l5.83,5.83L.4,24.07A1.36,1.36,0,0,0,.4,26l5.83,5.83L.4,37.65a1.36,1.36,0,0,0,1.92,1.92l6.79-6.79,6.51-6.51a1.32,1.32,0,0,0,.53.11H82.36a1.36,1.36,0,1,0,0-2.71ZM8.15,29.9,3.28,25l4.87-4.87L13,25Z"/><path class="cls-1" d="M238.52,24.07l-5.83-5.83,5.83-5.83a1.36,1.36,0,0,0,0-1.92,1.34,1.34,0,0,0-1.92,0l-6.79,6.79-6.39,6.39H157.78a1.36,1.36,0,1,0,0,2.71h65.64l6.39,6.4,6.79,6.79a1.37,1.37,0,0,0,1,.39,1.35,1.35,0,0,0,1-2.31l-5.83-5.83L238.52,26A1.36,1.36,0,0,0,238.52,24.07Zm-7.75,5.83L225.9,25l4.87-4.87L235.64,25Z"/><path class="cls-1" d="M136.59,30.7a24.45,24.45,0,0,0-3.35-.24,20.91,20.91,0,0,0-8.76,2.24,2.73,2.73,0,0,0,0-1.36,2.71,2.71,0,0,0,.82-.65,7.82,7.82,0,0,1,2.93-2.18,4.73,4.73,0,0,0,2.82-4.16c.34-9.87,4.51-14.2,5-14.64A2.71,2.71,0,0,0,134.27,5h0a2.65,2.65,0,0,0-1.37.37,30,30,0,0,0-8.26,6.7,27.91,27.91,0,0,0-2.74-10.49A2.73,2.73,0,0,0,119.61,0h-.17a2.7,2.7,0,0,0-2.28,1.24A22.52,22.52,0,0,0,114.26,12,30.12,30.12,0,0,0,106,5.3,2.77,2.77,0,0,0,104.66,5a2.72,2.72,0,0,0-1.83,4.72c.24.22,4.66,4.51,5,14.67a4.73,4.73,0,0,0,2.82,4.16,7.78,7.78,0,0,1,2.93,2.17,2.57,2.57,0,0,0,.82.65,2.7,2.7,0,0,0,0,1.41,21.14,21.14,0,0,0-8.76-2.28,24.49,24.49,0,0,0-3.36.24,2.43,2.43,0,0,0-2.07,2.4,2.35,2.35,0,0,0,1.92,2.33c.1,0,10.16,3.3,15,11.76a2.42,2.42,0,0,0,2.08,1.2h.3a2.42,2.42,0,0,0,2.08-1.2c4.89-8.45,14.93-11.72,14.86-11.72a2.41,2.41,0,0,0,0-4.77Zm-17.13-2.59,2.43,3.83-2.43,3.29L117,31.94Zm14.8-20.44s-5.49,4.9-5.88,16.59A2,2,0,0,1,127.19,26,10.7,10.7,0,0,0,123.25,29l-1.49-2.34c-.05-.08-.12-.13-.17-.2s.16-.18.23-.29a25.19,25.19,0,0,0,2.92-9.7A26.1,26.1,0,0,1,134.26,7.67ZM119.44,2.72c5.69,11.92,0,21.41,0,21.41C113.85,11.37,119.44,2.72,119.44,2.72ZM111.73,26a1.94,1.94,0,0,1-1.18-1.75c-.4-11.69-5.89-16.59-5.89-16.59a25.91,25.91,0,0,1,9.68,9,33,33,0,0,0,2.54,9,3.24,3.24,0,0,0,.44.71,1.81,1.81,0,0,0-.18.21l-1.48,2.33A10.63,10.63,0,0,0,111.73,26Zm7.73,19.61C115,38.13,107.17,34.45,104,33.24c.56,0,1.11-.07,1.65-.07,4.85,0,11.28,3.19,12.51,6.21a1.37,1.37,0,0,0,2.52,0c1.23-3,7.66-6.21,12.52-6.21.53,0,1.08,0,1.64.07C131.75,34.45,123.9,38.12,119.46,45.62Z"/></g></g></svg>