<svg xmlns="http://www.w3.org/2000/svg" viewBox="0 0 238.92 50"><defs><style>.cls-1{fill:#424242;}</style></defs><title>Zasób 45zak_</title><g id="Warstwa_2" data-name="Warstwa 2"><g id="Warstwa_1-2" data-name="Warstwa 1"><path class="cls-1" d="M82.36,23.64H16.15a1.18,1.18,0,0,0-.53.12L9.11,17.25,2.32,10.46A1.36,1.36,0,0,0,.4,12.38l5.83,5.83L.4,24A1.36,1.36,0,0,0,.4,26l5.83,5.83L.4,37.62a1.36,1.36,0,0,0,0,1.92,1.32,1.32,0,0,0,1,.4,1.34,1.34,0,0,0,1-.4l6.79-6.79,6.51-6.51a1.18,1.18,0,0,0,.53.12H82.36a1.36,1.36,0,0,0,0-2.72ZM8.15,29.87,3.28,25l4.87-4.87L13,25Z"/><path class="cls-1" d="M141.72,12.51A2.81,2.81,0,0,0,139.77,11,32.32,32.32,0,0,1,122.34.94,2.87,2.87,0,0,0,120.25,0h-.36a2.9,2.9,0,0,0-2.1.94A32.3,32.3,0,0,1,100.37,11a2.79,2.79,0,0,0-2,1.51,2.9,2.9,0,0,0-.33,2.43,32.33,32.33,0,0,1,0,20.12,2.9,2.9,0,0,0,.33,2.43,2.79,2.79,0,0,0,2,1.51,32.3,32.3,0,0,1,17.42,10.06,2.9,2.9,0,0,0,2.1.94h.36a2.87,2.87,0,0,0,2.09-.94A32.32,32.32,0,0,1,139.77,39a2.81,2.81,0,0,0,1.95-1.51,2.9,2.9,0,0,0,.32-2.43,32.33,32.33,0,0,1,0-20.12A2.9,2.9,0,0,0,141.72,12.51Zm-2.26,23.4a.09.09,0,0,1-.09.12.07.07,0,0,1-.06,0l-2.65-2.54a32.21,32.21,0,0,0-15.81-8.31.87.87,0,0,1-.26.44,32.37,32.37,0,0,0,15.11,9.54l3.52,1a.09.09,0,0,1,0,.18,34.79,34.79,0,0,0-18.89,10.91.11.11,0,0,1-.07,0,.09.09,0,0,1-.09-.11L121,43.6a32.27,32.27,0,0,0-.71-17.85.69.69,0,0,1-.25,0,.75.75,0,0,1-.26,0,32.45,32.45,0,0,0-.71,17.85l.88,3.57a.09.09,0,0,1-.16.08,34.82,34.82,0,0,0-18.9-10.91.09.09,0,0,1,0-.18l3.53-1a32.34,32.34,0,0,0,15.1-9.54.85.85,0,0,1-.25-.44,32.12,32.12,0,0,0-15.81,8.31L100.83,36a.1.1,0,0,1-.07,0,.09.09,0,0,1-.09-.12,34.79,34.79,0,0,0,0-21.82.09.09,0,0,1,.09-.12.1.1,0,0,1,.07,0l2.65,2.54a32.12,32.12,0,0,0,15.81,8.31.85.85,0,0,1,.25-.44,32.34,32.34,0,0,0-15.1-9.54l-3.53-1a.09.09,0,0,1,0-.18,34.82,34.82,0,0,0,18.9-10.91.09.09,0,0,1,.16.08L119.1,6.4a32.45,32.45,0,0,0,.71,17.85.75.75,0,0,1,.26,0,.69.69,0,0,1,.25,0A32.27,32.27,0,0,0,121,6.4l-.87-3.57a.09.09,0,0,1,.09-.11.11.11,0,0,1,.07,0,34.79,34.79,0,0,0,18.89,10.91.09.09,0,0,1,0,.18l-3.52,1a32.37,32.37,0,0,0-15.11,9.54.87.87,0,0,1,.26.44,32.21,32.21,0,0,0,15.81-8.31L139.31,14a.07.07,0,0,1,.06,0,.09.09,0,0,1,.09.12A34.93,34.93,0,0,0,139.46,35.91Z"/><path class="cls-1" d="M238.52,24l-5.83-5.83,5.83-5.83a1.36,1.36,0,0,0-1.92-1.92l-6.79,6.79-6.39,6.39H157.78a1.36,1.36,0,0,0,0,2.72h65.64l6.39,6.39,6.79,6.79a1.34,1.34,0,0,0,1,.4,1.32,1.32,0,0,0,1-.4,1.36,1.36,0,0,0,0-1.92l-5.83-5.83L238.52,26A1.36,1.36,0,0,0,238.52,24Zm-7.75,5.83L225.9,25l4.87-4.87L235.64,25Z"/></g></g></svg>