<svg xmlns="http://www.w3.org/2000/svg" viewBox="0 0 73.58 50"><title>Zasób 71zak_</title><g id="Warstwa_2" data-name="Warstwa 2"><g id="Warstwa_1-2" data-name="Warstwa 1"><path d="M62.79,19.57A21.63,21.63,0,0,0,41.55,0,22.25,22.25,0,0,0,24.67,8l-.34-.16h-.06l-.22-.08-.42-.13-.12,0-.25-.13H23.2L23,7.42a3.32,3.32,0,0,0-1.17-.16h-.36a2.27,2.27,0,0,1-.42,0,7.58,7.58,0,0,0-.77-.07,11.92,11.92,0,0,0-11.9,11.7A17.67,17.67,0,0,0,0,33.54,15.74,15.74,0,0,0,4.53,45.05,16.36,16.36,0,0,0,16.2,50H58.1A15.49,15.49,0,0,0,73.58,34.52,16,16,0,0,0,62.79,19.57ZM12.86,21.69V19.05A7.07,7.07,0,0,1,20,11.9a2.29,2.29,0,0,1,.69.06l.18.06h.44a1,1,0,0,1,.34.1l.41.14h.13a4.78,4.78,0,0,1,.6.23h0a1.14,1.14,0,0,0,.37.18l.09,0a1.54,1.54,0,0,1,.29.15l.2.16a7.14,7.14,0,0,1,3.26,6,2.38,2.38,0,0,0,4.76,0,11.8,11.8,0,0,0-3.37-8.33,17.59,17.59,0,0,1,13-6,16.66,16.66,0,0,1,16.28,14.1,25.83,25.83,0,0,0-3.77.21,2.38,2.38,0,0,0-1.89,2.71,2.47,2.47,0,0,0,2.36,2h.4a23.65,23.65,0,0,1,5,0l.25,0a11.05,11.05,0,0,1,8.73,10.72A10.73,10.73,0,0,1,58.1,45.24H16.2A11.82,11.82,0,0,1,4.53,33.57a13,13,0,0,1,7-11.2Z"/></g></g></svg>