<svg xmlns="http://www.w3.org/2000/svg" fill="#236b7a" viewBox="0 0 301.6 50"><title>Zasób 56zak_</title><g id="Warstwa_2" data-name="Warstwa 2"><g id="Warstwa_1-2" data-name="Warstwa 1"><path d="M0,49.23H30v-9H13.38L29.44,20.71V13.2H.51v9H16.16L0,41.87ZM60.71,24.92S57.27,28,57.27,35.36a6,6,0,0,0-4.11,4,14.13,14.13,0,0,1,7.55-14.49M52.66,34.5c-3.25-7.43,0-12.46,0-12.46a13.74,13.74,0,0,1,0,12.46m-.5,4.91a6,6,0,0,0-4.11-4c0-7.37-3.44-10.44-3.44-10.44a14.13,14.13,0,0,1,7.55,14.49M51.22,41l1.44-1.49L54.11,41a6,6,0,0,0-.76,1.12c-.35.67-.69,1.53-.69,1.53s-.36-.93-.65-1.49A7.18,7.18,0,0,0,51.22,41m9.39,8.1H72.52v-.49L52.47,0,32.3,48.63v.49H44.22l3.1-8.4a19.67,19.67,0,0,0-7.61-3c11.25-1.58,13,8.77,13,8.77s1.69-10.35,13-8.77a19.63,19.63,0,0,0-8,3.24Zm41.15.11h10.71v-.47L99.29,28.54l12.87-14.88V13.2H100.58L87.14,29.1V13.2H77.36v36h9.78V42.54L93,35.79Zm40.1-18c0,5.51-3.55,9.63-9.47,9.63s-9.53-4.12-9.53-9.63,3.61-9.68,9.53-9.68,9.47,4.17,9.47,9.68m9.93,0c0-10.24-7.41-18.79-19.4-18.79S112.93,21,112.93,31.21,120.39,50,132.39,50s19.4-8.54,19.4-18.79M177.56,26c0,2.53-1.9,4.17-4.58,4.17h-5.73V21.71H173A4.23,4.23,0,0,1,177.56,26m9.78-.15c0-7.51-5.56-12.71-13-12.71H157.47v36h9.78V38.65h7.07c7.46,0,13-5.2,13-12.77M211,35.41h-9.05l4.55-11.85Zm5.28,13.71h10.66v-.51L206.49,0,186.05,48.61v.51h10.66l2.07-5.48h15.37Zm39.63.08h8.49v-36h-9.77V32.88l-15.7-19.71h-8.5v36h9.78V29.48Zm41.73-13.72h3.64v-2h-2.13V27.31H296.9v8.17Zm4,13.72V40.34H281.53V35.52h5V27.28h-5V22h19.71V13.17H271.75v36Zm-10.17-18V29.25h.9a1,1,0,1,1,0,1.93Zm0,4.3V33.09h1.21a2.89,2.89,0,1,0,0-5.78h-3.45v8.17Z"/></g></g></svg>