<svg xmlns="http://www.w3.org/2000/svg" viewBox="0 0 214.1 266"><defs><style>.cls-1{fill:#ff000a;}</style></defs><title>Zasób 2zak_</title><g id="Warstwa_2" data-name="Warstwa 2"><g id="Warstwa_1-2" data-name="Warstwa 1"><path class="cls-1" d="M214.05,67.66a3.57,3.57,0,0,0-3.41-3.08,91.56,91.56,0,0,0-23.39,1.9,98.74,98.74,0,0,0-36.08,15.8,103.33,103.33,0,0,0-13.73,11.6,197.1,197.1,0,0,0-1.61-20l0,0c1.1-1.22,2.31-2.34,3.48-3.43.56-.53,1.12-1,1.62-1.53s1.11-1,1.67-1.42l.92-.77c.29-.23.56-.47.84-.7a20.13,20.13,0,0,1,1.7-1.35A94.59,94.59,0,0,1,163.53,54a30.76,30.76,0,0,1,2.9-1.31l4-1.68a1,1,0,1,0-.77-1.85l-4,1.68c-.94.39-2,.81-3,1.37A96.3,96.3,0,0,0,144.92,63c-.65.45-1.24,1-1.81,1.44-.27.23-.54.46-.83.69l-.92.77c-.57.48-1.15,1-1.75,1.5s-1.07,1-1.62,1.52c-.83.77-1.67,1.58-2.5,2.42C131.66,44.8,122.56,20.42,109,1a2.39,2.39,0,0,0-2-1h0a2.38,2.38,0,0,0-2,1C91.54,20.41,82.45,44.79,78.61,71.31c-.82-.83-1.66-1.64-2.48-2.4l-1.66-1.56c-.56-.51-1.14-1-1.71-1.46l-1-.79-.8-.68c-.58-.48-1.17-1-1.78-1.41A96.28,96.28,0,0,0,51.51,52.22c-1.1-.58-2.11-1-3-1.39l-4-1.68A1,1,0,0,0,43.68,51l4,1.68c.9.37,1.87.77,2.94,1.33A95,95,0,0,1,68.05,64.62c.57.4,1.1.85,1.66,1.33l.82.69,1,.79c.55.46,1.12.92,1.63,1.38s1.09,1,1.66,1.56c1.17,1.09,2.38,2.21,3.48,3.43a0,0,0,0,0,0,0Q77,83.68,76.65,93.88a102.7,102.7,0,0,0-13.73-11.6,98.62,98.62,0,0,0-36.07-15.8,91.12,91.12,0,0,0-23.39-1.9,3.65,3.65,0,0,0-1,7.08,79.86,79.86,0,0,1,18.31,9.5,75.24,75.24,0,0,1,21.05,22.19,67.72,67.72,0,0,1,9.46,26.28,60.55,60.55,0,0,1-1.85,25.22,30,30,0,0,0,3,23.74,29.69,29.69,0,0,0,19.52,13.94,28.74,28.74,0,0,0,6.1.64,30.13,30.13,0,0,0,28-19c0-.06,0-.12.07-.17v74.43c-.49-1.11-1-2.18-1.52-3.24a75.53,75.53,0,0,0-3.78-6.67,72.57,72.57,0,0,0-9.39-11.94,62.42,62.42,0,0,0-25.18-16,66.66,66.66,0,0,0-14.23-3c-.8-.08-1.61-.12-2.39-.15l-1.18-.06-1.79-.09c-.4,0-.79,0-1.18,0l-4,.08-3.59.3a94.2,94.2,0,0,0-12.59,2.1,2.31,2.31,0,0,0,.65,4.55,87.88,87.88,0,0,1,12,.18l3.2.3,3.72.61c.32,0,.64.1.93.16l1.54.36,1.14.27c.64.15,1.27.3,1.91.48a56.25,56.25,0,0,1,11.29,4.61,48.84,48.84,0,0,1,17,15.79A55.2,55.2,0,0,1,84,247.28a53.15,53.15,0,0,1,1.86,5.41c.26.87.49,1.78.7,2.7.1.43.18.84.26,1.26l-.1,0,.26,1.09A10.67,10.67,0,0,0,97.35,266a10.42,10.42,0,0,0,2.47-.29,10.63,10.63,0,0,0,7.23-5.91,10.61,10.61,0,0,0,7.23,5.91,10.42,10.42,0,0,0,2.47.29,10.67,10.67,0,0,0,10.37-8.24l.26-1.09-.1,0h0c.08-.41.16-.83.26-1.27.21-.91.44-1.82.7-2.69a51.81,51.81,0,0,1,1.86-5.42A54.83,54.83,0,0,1,135.47,237a48.84,48.84,0,0,1,17.05-15.79,56.1,56.1,0,0,1,11.3-4.61c.63-.18,1.26-.33,1.9-.48.38-.08.76-.17,1.13-.27l1.52-.36,1-.16,3.74-.61,3.17-.3a88.06,88.06,0,0,1,12-.18,2.31,2.31,0,0,0,.65-4.55,94.08,94.08,0,0,0-12.6-2.1l-3.43-.29-4.17-.09c-.4,0-.79,0-1.22,0l-1.76.09-1.17.06c-.78,0-1.59.07-2.39.15a66.66,66.66,0,0,0-14.23,3,62.42,62.42,0,0,0-25.18,16,72.92,72.92,0,0,0-9.39,11.93,74.69,74.69,0,0,0-3.78,6.68c-.53,1.06-1,2.12-1.5,3.21V174a.58.58,0,0,0,0,.14,30.11,30.11,0,0,0,28,19,28.81,28.81,0,0,0,6.1-.64,29.69,29.69,0,0,0,19.52-13.94,30,30,0,0,0,3-23.74,60.55,60.55,0,0,1-1.85-25.22,67.72,67.72,0,0,1,9.46-26.28,75.24,75.24,0,0,1,21-22.19,79.65,79.65,0,0,1,18.31-9.5A3.59,3.59,0,0,0,214.05,67.66ZM106.73,2.17a.37.37,0,0,1,.32-.17.38.38,0,0,1,.32.17c17.42,24.93,27.41,58.2,28.14,93.7a106.2,106.2,0,0,0-13.14,17.07A112,112,0,0,0,108.06,149V32a1,1,0,0,0-2,0V149.1a112.31,112.31,0,0,0-14.33-36.16A106.27,106.27,0,0,0,78.47,95.75a1.07,1.07,0,0,0,.13-.44C79.42,60,89.41,27,106.73,2.17Zm-2.6,171.24a28.09,28.09,0,0,1-31.78,17.17,27.73,27.73,0,0,1-18.22-13,28,28,0,0,1-2.83-22.16,62.62,62.62,0,0,0,1.92-26,70,70,0,0,0-9.74-27.06A77.5,77.5,0,0,0,21.87,79.52,82.08,82.08,0,0,0,3.1,69.78a1.61,1.61,0,0,1-.62-.39C22.24,71.17,40.86,81.15,55,97.62c14,16.26,22,37.44,22,58.12a1,1,0,0,0,2,0c0-21.15-8.18-42.8-22.43-59.42-14.58-17-33.84-27.25-54.28-29a1.52,1.52,0,0,1,1.32-.78c1.42-.07,2.85-.1,4.27-.1a89.63,89.63,0,0,1,18.6,2A96.66,96.66,0,0,1,61.77,83.92,103.44,103.44,0,0,1,90,114a110.72,110.72,0,0,1,15.12,41.28l.59,3.85A28,28,0,0,1,104.13,173.41Zm-4.77,90.36A8.67,8.67,0,0,1,89,257.48l0-.27c0-.08,0-.16,0-.26l-.12-.68c-.08-.44-.16-.88-.27-1.33-.21-.95-.46-1.9-.73-2.81a56.09,56.09,0,0,0-1.92-5.6,57,57,0,0,0-5.57-10.61,50.86,50.86,0,0,0-17.76-16.44,58,58,0,0,0-11.69-4.77c-.66-.2-1.33-.35-2-.51l-1.12-.26-1.59-.38c-.34-.07-.69-.12-1-.18l-3.7-.6L38,212.46a88.76,88.76,0,0,0-12.26-.19.27.27,0,0,1-.32-.26.27.27,0,0,1,.23-.34A90.36,90.36,0,0,1,38,209.61l3.43-.29,4-.08c.37,0,.74,0,1.08,0l1.74.08c.4,0,.79.05,1.2.06.76,0,1.52.07,2.28.15a65.05,65.05,0,0,1,13.81,2.9,60.56,60.56,0,0,1,24.37,15.51,73.85,73.85,0,0,1,12.81,18.12c.57,1.13,1.1,2.25,1.61,3.45.26.58.5,1.19.74,1.79l.36,1,.37,1.12A8.7,8.7,0,0,1,99.36,263.77Zm8.91-10.41.72-2.06c.25-.61.49-1.22.75-1.81.51-1.19,1-2.31,1.61-3.44a73.85,73.85,0,0,1,12.81-18.12,60.56,60.56,0,0,1,24.37-15.51,65.05,65.05,0,0,1,13.81-2.9c.76-.08,1.52-.11,2.28-.15.4,0,.8,0,1.19-.06l1.72-.08c.36,0,.73,0,1.1,0l4.07.08,3.4.29a90.24,90.24,0,0,1,12.32,2.06.27.27,0,0,1,.23.34.26.26,0,0,1-.32.26,88.93,88.93,0,0,0-12.27.19l-3.19.3-3.85.62c-.35.06-.7.11-1.08.19l-1.57.37-1.1.26c-.68.16-1.35.31-2,.51a58.3,58.3,0,0,0-11.7,4.77,50.92,50.92,0,0,0-17.75,16.44,56.6,56.6,0,0,0-5.56,10.6,52.33,52.33,0,0,0-1.93,5.61c-.27.91-.52,1.86-.73,2.8-.11.46-.19.9-.29,1.4l-.1.61c0,.11,0,.19,0,.34l0,.19a8.67,8.67,0,0,1-17.07-2.09V255A8.47,8.47,0,0,1,108.27,253.36ZM211,69.78a81.87,81.87,0,0,0-18.77,9.74,77.5,77.5,0,0,0-21.61,22.79,69.82,69.82,0,0,0-9.74,27.05,62.65,62.65,0,0,0,1.92,26A28,28,0,0,1,160,177.57a27.75,27.75,0,0,1-18.22,13,28,28,0,0,1-33.4-31.45l.6-3.85h0A110.83,110.83,0,0,1,124.07,114a103.63,103.63,0,0,1,28.25-30.07,96.78,96.78,0,0,1,35.35-15.49,89.63,89.63,0,0,1,18.6-2c1.42,0,2.85,0,4.27.1a1.54,1.54,0,0,1,1.31.75C191.32,69,172,79.21,157.34,96.24c-14.3,16.63-22.51,38.31-22.51,59.5a1,1,0,0,0,2,0c0-43.58,34.18-82.91,74.82-86.38A1.63,1.63,0,0,1,211,69.78Z"/><path class="cls-1" d="M118.11,205.89a5.8,5.8,0,1,0,5.8-5.8A5.8,5.8,0,0,0,118.11,205.89Zm9.6,0a3.8,3.8,0,1,1-3.8-3.8A3.81,3.81,0,0,1,127.71,205.89Z"/><path class="cls-1" d="M96,205.89a5.8,5.8,0,1,0-5.8,5.8A5.8,5.8,0,0,0,96,205.89Zm-9.6,0a3.8,3.8,0,1,1,3.8,3.8A3.8,3.8,0,0,1,86.39,205.89Z"/></g></g></svg>