<svg xmlns="http://www.w3.org/2000/svg" viewBox="0 0 40.24 50"><defs><style>.cls-1{fill:#ff000a;}</style></defs><title>Zasób 65zak_</title><g id="Warstwa_2" data-name="Warstwa 2"><g id="Warstwa_1-2" data-name="Warstwa 1"><path class="cls-1" d="M40.24,12.72a.68.68,0,0,0-.65-.58,17,17,0,0,0-4.39.36,18.33,18.33,0,0,0-6.78,3,19.05,19.05,0,0,0-2.59,2.18,35.72,35.72,0,0,0-.3-3.77h0c.21-.23.43-.44.65-.64l.31-.29.31-.27.18-.14.15-.13.32-.26a18.33,18.33,0,0,1,3.28-2c.19-.1.38-.18.54-.25L32,9.59a.2.2,0,0,0,.1-.25.19.19,0,0,0-.25-.1l-.75.31-.57.26a18.22,18.22,0,0,0-3.33,2c-.12.08-.23.18-.34.27l-.15.13-.18.14-.33.28-.3.29c-.16.15-.32.3-.47.46a30.83,30.83,0,0,0-5-13.22A.44.44,0,0,0,20.12,0h0a.47.47,0,0,0-.37.19,31,31,0,0,0-5,13.21L14.31,13,14,12.66l-.33-.28-.17-.14-.15-.13c-.11-.09-.22-.19-.34-.27a18.22,18.22,0,0,0-3.33-2c-.21-.1-.4-.19-.57-.25l-.75-.32a.19.19,0,1,0-.15.35L9,9.9l.55.25a18.25,18.25,0,0,1,3.27,2,3.49,3.49,0,0,1,.32.25l.15.13.17.14.31.26.31.3c.22.2.45.41.66.64h0c-.16,1.23-.26,2.49-.3,3.77a19,19,0,0,0-2.58-2.18,18.4,18.4,0,0,0-6.78-3,17.15,17.15,0,0,0-4.4-.36.67.67,0,0,0-.64.58.68.68,0,0,0,.44.75A14.66,14.66,0,0,1,3.9,15.26a14.13,14.13,0,0,1,4,4.17,12.69,12.69,0,0,1,1.78,4.94,11.31,11.31,0,0,1-.35,4.74,5.62,5.62,0,0,0,10.64,3.62l0,0v14c-.1-.21-.19-.41-.29-.61a14.28,14.28,0,0,0-.71-1.25,13.4,13.4,0,0,0-1.77-2.25,11.69,11.69,0,0,0-4.73-3A13,13,0,0,0,9.77,39l-.45,0H9.1l-.34,0H8.54l-.76,0L7.11,39a17,17,0,0,0-2.37.39.44.44,0,0,0,.12.86,16.73,16.73,0,0,1,2.25,0l.61.06.69.11.18,0,.29.07.21.05.36.09a10.06,10.06,0,0,1,2.12.87,9.16,9.16,0,0,1,3.21,3,10.42,10.42,0,0,1,1,1.93,9.3,9.3,0,0,1,.35,1c.05.16.09.33.13.51s0,.15.05.23v0h0l.05.19A2,2,0,0,0,18.3,50a2.4,2.4,0,0,0,.46,0,2.05,2.05,0,0,0,1.25-.9,2.12,2.12,0,0,0,.11-.21l.11.21a2.08,2.08,0,0,0,1.25.9,2.49,2.49,0,0,0,.46,0,2,2,0,0,0,1.95-1.55l.05-.19h0v0c0-.07,0-.15,0-.23s.09-.34.13-.5a9.24,9.24,0,0,1,.36-1,9.81,9.81,0,0,1,1-1.93,9.16,9.16,0,0,1,3.21-3,10.28,10.28,0,0,1,2.12-.87l.36-.09.21-.05.29-.07.18,0,.7-.11.6-.06a16.73,16.73,0,0,1,2.25,0,.43.43,0,0,0,.45-.37.42.42,0,0,0-.33-.49A16.72,16.72,0,0,0,33.13,39L32.49,39l-.78,0h-.23l-.33,0h-.23l-.44,0a12.91,12.91,0,0,0-2.68.56,11.82,11.82,0,0,0-4.73,3,13.35,13.35,0,0,0-1.76,2.25,14.27,14.27,0,0,0-.72,1.25c-.1.2-.19.4-.28.6v-14a5.66,5.66,0,0,0,5.26,3.58,5.62,5.62,0,0,0,4.81-2.74A5.63,5.63,0,0,0,31,29.11a11.48,11.48,0,0,1-.35-4.74,12.85,12.85,0,0,1,1.78-4.94,14,14,0,0,1,4-4.17,14.59,14.59,0,0,1,3.44-1.79A.68.68,0,0,0,40.24,12.72ZM20.06.41a.07.07,0,0,1,.06,0h0a.06.06,0,0,1,.06,0A32,32,0,0,1,25.47,18,20.3,20.3,0,0,0,23,21.23,21.34,21.34,0,0,0,20.31,28V6a.18.18,0,0,0-.19-.19.18.18,0,0,0-.18.19V28a21.14,21.14,0,0,0-2.7-6.8A19,19,0,0,0,14.75,18a.24.24,0,0,0,0-.08A32.2,32.2,0,0,1,20.06.41ZM19.57,32.6a5.25,5.25,0,0,1-9.93-3.39A11.52,11.52,0,0,0,10,24.32a13,13,0,0,0-1.83-5.09A14.51,14.51,0,0,0,4.11,15,15.14,15.14,0,0,0,.58,13.12.31.31,0,0,1,.47,13a14.84,14.84,0,0,1,9.87,5.31,17.08,17.08,0,0,1,4.12,10.92.19.19,0,0,0,.19.19.18.18,0,0,0,.19-.19,17.43,17.43,0,0,0-4.22-11.16A15.14,15.14,0,0,0,.42,12.66a.26.26,0,0,1,.25-.14c.27,0,.53,0,.8,0a17.18,17.18,0,0,1,3.5.36,18.22,18.22,0,0,1,6.64,2.91,19.4,19.4,0,0,1,5.31,5.66,20.54,20.54,0,0,1,2.84,7.76l.12.72A5.27,5.27,0,0,1,19.57,32.6Zm.12,16.25a1.63,1.63,0,0,1-3-.45v0s0,0,0-.05l0-.13c0-.08,0-.17-.05-.25s-.09-.36-.14-.53a9.86,9.86,0,0,0-.36-1,10.5,10.5,0,0,0-1.05-2,9.39,9.39,0,0,0-3.34-3.09,10.74,10.74,0,0,0-2.19-.9l-.38-.1-.21,0-.3-.07-.2,0L7.78,40l-.63-.06a16,16,0,0,0-2.31,0,.06.06,0,0,1-.06,0c0-.05,0-.06,0-.06a16.16,16.16,0,0,1,2.31-.39l.65,0,.76,0h.52l.23,0,.43,0a12.07,12.07,0,0,1,2.59.55,11.5,11.5,0,0,1,4.59,2.91A13.55,13.55,0,0,1,18.62,45a11.53,11.53,0,0,1,.69,1.22c.11.21.21.42.31.65s.09.22.14.33l.06.18.07.21A1.61,1.61,0,0,1,19.69,48.85Zm.66-1.23.14-.38a3.45,3.45,0,0,1,.14-.34,6.44,6.44,0,0,1,.3-.65,13.88,13.88,0,0,1,2.41-3.41,11.46,11.46,0,0,1,4.58-2.91,12.16,12.16,0,0,1,2.6-.55l.42,0,.23,0h.53l.76,0,.64,0a16.29,16.29,0,0,1,2.32.39,0,0,0,0,1,0,.06.06.06,0,0,1-.06,0,16,16,0,0,0-2.31,0l-.6.05-.71.12-.21,0-.3.07-.2,0-.38.1a11.06,11.06,0,0,0-2.2.9,9.47,9.47,0,0,0-3.34,3.09,11.07,11.07,0,0,0-1,2c-.13.32-.25.66-.37,1,0,.18-.09.35-.13.53a2,2,0,0,0-.05.24l0,.14v.1a1.63,1.63,0,0,1-3,.45,1.74,1.74,0,0,1-.24-.83v-.09C20.32,47.83,20.33,47.72,20.35,47.62Zm19.31-34.5A15.34,15.34,0,0,0,36.13,15a14.51,14.51,0,0,0-4.06,4.28,13.12,13.12,0,0,0-1.83,5.09,11.84,11.84,0,0,0,.36,4.89,5.25,5.25,0,1,1-10.23.7l.11-.72h0a20.89,20.89,0,0,1,2.84-7.76,19.53,19.53,0,0,1,5.31-5.66,18.19,18.19,0,0,1,6.65-2.91,17.09,17.09,0,0,1,3.49-.36c.27,0,.54,0,.81,0a.25.25,0,0,1,.24.14,15.14,15.14,0,0,0-10.25,5.43,17.49,17.49,0,0,0-4.23,11.18.19.19,0,0,0,.19.19.18.18,0,0,0,.19-.19c0-8.19,6.42-15.58,14.06-16.23A.36.36,0,0,1,39.66,13.12Z"/><path class="cls-1" d="M22.2,38.7a1.09,1.09,0,1,0,1.09-1.09A1.09,1.09,0,0,0,22.2,38.7Zm1.81,0a.72.72,0,0,1-.72.71.71.71,0,0,1,0-1.42A.72.72,0,0,1,24,38.7Z"/><path class="cls-1" d="M18,38.7A1.09,1.09,0,1,0,17,39.79,1.09,1.09,0,0,0,18,38.7Zm-1.8,0a.72.72,0,1,1,.71.71A.71.71,0,0,1,16.24,38.7Z"/></g></g></svg>