<svg xmlns="http://www.w3.org/2000/svg" viewBox="0 0 89.7 50"><defs><style>.cls-1{fill:#f44336;}</style></defs><title>Zasób 86zak_</title><g id="Warstwa_2" data-name="Warstwa 2"><g id="Warstwa_1-2" data-name="Warstwa 1"><path class="cls-1" d="M89.61,24.08a2,2,0,0,0-.16-.53l0-1h-.28l0-.53h-.63l-.11-.1L67.7,1.27a4.35,4.35,0,0,0-7.42,3.08,4.31,4.31,0,0,0,1.27,3.07L74.78,20.65H14.92L28.09,7.48a3.9,3.9,0,0,0,1.33-2.86,4.28,4.28,0,0,0-1.27-3.18,4.4,4.4,0,0,0-6.15,0L1.35,22.08a3.5,3.5,0,0,0-.53.63l-.51.74v.19c0,.11-.09.22-.17.44a2.81,2.81,0,0,0-.14,1,3,3,0,0,0,.09.84,1.82,1.82,0,0,0,.16.53l.06,1H.58l0,.54h.64l.1.1L22,48.73a4.35,4.35,0,1,0,6.15-6.15L14.92,29.35H74.78L61.61,42.52a3.93,3.93,0,0,0-1.33,2.85,4.31,4.31,0,0,0,1.27,3.2,4.4,4.4,0,0,0,6.15,0L88.34,27.93a3.3,3.3,0,0,0,.55-.65l.5-.75v-.17c0-.11.09-.22.17-.44a2.83,2.83,0,0,0,.14-1A3,3,0,0,0,89.61,24.08Z"/></g></g></svg>