<svg xmlns="http://www.w3.org/2000/svg" viewBox="0 0 92.41 50"><defs><style>.cls-1{fill:#4caf50;}</style></defs><title>Zasób 79zak_</title><g id="Warstwa_2" data-name="Warstwa 2"><g id="Warstwa_1-2" data-name="Warstwa 1"><path class="cls-1" d="M70.2,1.23l0,0A4.52,4.52,0,0,0,64.69.69L35.22,19.84l-9.59-9.67a4.42,4.42,0,0,0-5.49-.63L0,22.11V45.42A3.75,3.75,0,0,0,.05,46l.11,1.69H.5l.47.55H1l1,1,.05,0,.24.24H2.4l.06,0,.64.3A3.34,3.34,0,0,0,4.19,50H88a4.37,4.37,0,0,0,4.42-4.42V22.8ZM27.67,24.8,8.85,37.28V27l13-8.06ZM83.8,26.44V41.07H19.23l47.4-31Z"/></g></g></svg>