<svg xmlns="http://www.w3.org/2000/svg" viewBox="0 0 50.04 50"><defs><style>.cls-1{fill:#ff9800;}</style></defs><title>Zasób 83zak_</title><g id="Warstwa_2" data-name="Warstwa 2"><g id="Warstwa_1-2" data-name="Warstwa 1"><path class="cls-1" d="M50,7.18a7.16,7.16,0,1,0-14.32,0A7.25,7.25,0,0,0,40.55,14V47.56a2.4,2.4,0,1,0,4.79,0l0-33.63A7.18,7.18,0,0,0,50,7.18Zm-4.71,0a2.39,2.39,0,0,1-2.39,2.39,2.39,2.39,0,0,1,0-4.78A2.39,2.39,0,0,1,45.33,7.18Z"/><path class="cls-1" d="M27.46,19.62V2.4a2.4,2.4,0,1,0-4.79,0V19.53a7.19,7.19,0,0,0,0,13.59V47.6a2.4,2.4,0,1,0,4.79,0V33.11a7.17,7.17,0,0,0,0-13.49Zm-.09,6.74a2.39,2.39,0,0,1-4.78,0A2.39,2.39,0,0,1,25,24,2.42,2.42,0,0,1,27.37,26.36Z"/><path class="cls-1" d="M9.58,36V2.4a2.4,2.4,0,1,0-4.79,0V36A7.07,7.07,0,0,0,0,42.78,7.18,7.18,0,1,0,9.58,36Zm-.05,6.75a2.39,2.39,0,0,1-2.39,2.38,2.39,2.39,0,1,1,0-4.77A2.39,2.39,0,0,1,9.53,42.78Z"/></g></g></svg>