<svg xmlns="http://www.w3.org/2000/svg" viewBox="0 0 50 50"><title>Zasób 62zak_</title><g id="Warstwa_2" data-name="Warstwa 2"><g id="Warstwa_1-2" data-name="Warstwa 1"><path d="M31.68,25,28.63,22l2.76-2.77-.57-.57-2.77,2.76-.28.29L25,24.42l-2.77-2.76L22,21.37l-2.77-2.76-.57.57L21.37,22,18.32,25l3.05,3.05-2.76,2.77.57.57L22,28.63l.28-.29L25,25.58l2.77,2.76.28.29,2.77,2.76.57-.57-2.76-2.77ZM22,27.48,19.47,25,22,22.52,24.42,25ZM25.58,25l2.47-2.48L30.53,25l-2.48,2.48Z"/><path d="M25,0,0,25,25,50,50,25ZM1.15,25,25,1.15,48.85,25,25,48.85Z"/></g></g></svg>