<svg xmlns="http://www.w3.org/2000/svg" viewBox="0 0 18.66 10.24"><defs><style>.cls-1{fill:#f44336;}</style></defs><title>Zasób 4zak_</title><g id="Warstwa_2" data-name="Warstwa 2"><g id="Warstwa_1-2" data-name="Warstwa 1"><path class="cls-1" d="M18.39,4.48,14.17.26a.9.9,0,0,0-1.27,0,.91.91,0,0,0,0,1.28l2.68,2.68H3.07L5.76,1.54A.91.91,0,0,0,4.48.26L.26,4.48A.94.94,0,0,0,0,5.12a.9.9,0,0,0,.26.64L4.48,10a.92.92,0,0,0,1.28,0,.91.91,0,0,0,0-1.28L3.07,6H15.58L12.9,8.7a.91.91,0,0,0,0,1.28.93.93,0,0,0,.64.26.89.89,0,0,0,.63-.26l4.22-4.22a.89.89,0,0,0,0-1.28Z"/></g></g></svg>