<svg xmlns="http://www.w3.org/2000/svg" viewBox="0 0 222 227.57"><defs><style>.cls-1{fill:#ff000a;}</style></defs><title>Zasób 3zak_</title><g id="Warstwa_2" data-name="Warstwa 2"><g id="Warstwa_1-2" data-name="Warstwa 1"><path class="cls-1" d="M180.43,97c7.27,7.39,17.93,12.28,27.88,12.28.85,0,1.69,0,2.52-.11l2.06-.17-.87-1.87c-4.52-9.67-14.86-17.43-25.74-20.26C197.16,84.07,207.5,76.32,212,66.66l.87-1.87-2.06-.18c-10.62-.92-22.5,4.15-30.39,12.15,3-10.83,1.43-23.65-4.67-32.39l-1.18-1.69-1.18,1.69c-6.11,8.74-7.67,21.56-4.68,32.38-7.89-8-19.77-13.06-30.39-12.14l-2.05.18.87,1.87C141.68,76.33,152,84.07,162.9,86.9c-10.88,2.82-21.22,10.58-25.74,20.25l-.87,1.87,2.05.17c.83.08,1.67.11,2.52.11,9.95,0,20.61-4.89,27.88-12.28-3,10.84-1.45,23.67,4.67,32.42l1.18,1.69,1.18-1.69C181.88,120.69,183.43,107.86,180.43,97Zm29.41,10.24c-11.53.65-24.43-6-31.33-15.57a31,31,0,0,0-2-3.68c.38,0,.76,0,1.15,0,1,0,2-.06,3-.15C192.41,89.06,204.63,96.93,209.84,107.26Zm0-40.71c-5.2,10.3-17.37,18.16-29.13,19.35a31,31,0,0,0-4.19-.13,32.7,32.7,0,0,0,2-3.64C185.41,72.52,198.33,65.9,209.84,66.55ZM174.59,46.19c6.32,9.66,7,24.14,2.18,34.91a31.66,31.66,0,0,0-2.18,3.53,33.31,33.31,0,0,0-2.19-3.53C167.54,70.32,168.26,55.85,174.59,46.19ZM139.33,66.55c11.53-.65,24.43,6,31.33,15.57a31.28,31.28,0,0,0,2,3.65,30.83,30.83,0,0,0-4.18.13C156.71,84.72,144.53,76.86,139.33,66.55Zm0,40.71c5.22-10.33,17.43-18.2,29.22-19.35,1,.09,2,.15,3,.15.39,0,.77,0,1.15,0a31,31,0,0,0-2,3.68C163.76,101.29,150.86,107.9,139.33,107.26Zm33.1-14.61a33,33,0,0,0,2.16-3.53,31.39,31.39,0,0,0,2.15,3.53c4.89,10.78,4.18,25.29-2.15,35C168.25,117.94,167.54,103.43,172.43,92.65Z"/><path class="cls-1" d="M174.66,38.8a47.34,47.34,0,0,0-1.81,94.64c-26.26,31.35-57,58.07-61.85,62.2-3.07-2.63-16.68-14.44-32.95-30.77v0a1,1,0,0,0-1-1h0c-9-9.06-18.7-19.44-27.87-30.39A47.34,47.34,0,1,0,0,86.21c0,22.5,18.6,53.07,55.28,90.85,7.11,7.32,14.24,14.2,20.9,20.39a.94.94,0,0,0,.5.46c18.63,17.29,33.5,29,33.7,29.17l.62.49.62-.49c.2-.15,15.17-12,33.91-29.36l.06-.05c6.73-6.25,13.94-13.21,21.13-20.61C203.4,139.28,222,108.71,222,86.14A47.4,47.4,0,0,0,174.66,38.8ZM129.32,86.14a45.34,45.34,0,1,1,90.68.07c0,22.76-20.38,51.79-43.56,77.45v-31a1,1,0,0,0-1-1,1.16,1.16,0,0,0-.18,0,1,1,0,0,0-.6-.23A45.39,45.39,0,0,1,129.32,86.14ZM110,224.22c-4.16-3.36-15.92-13-30.23-26.23h30.28a.79.79,0,0,0,0,.22ZM112,198h30.28c-14.31,13.2-26.07,22.86-30.23,26.23v-26A.79.79,0,0,0,112,198Zm62.49-33.6h-27.2c8.8-8.91,18.25-19,27.2-29.73Zm-30.58,3.39V196H113.65C118.18,192.06,129.93,181.67,143.86,167.78ZM108.35,196H78.05v-28.3C92,181.63,103.81,192.06,108.35,196ZM47.29,46.19c6.32,9.66,7,24.14,2.18,34.92a30.65,30.65,0,0,0-2.18,3.52A31.75,31.75,0,0,0,45.1,81.1C40.24,70.32,41,55.85,47.29,46.19ZM49.2,88c.39,0,.77,0,1.15,0,1,0,2-.06,3-.15,11.79,1.15,24,9,29.22,19.35-11.53.65-24.44-6-31.34-15.58A31.68,31.68,0,0,0,49.2,88Zm0-2.24a31.28,31.28,0,0,0,2-3.65c6.9-9.6,19.8-16.23,31.34-15.57C77.34,76.86,65.17,84.72,53.4,85.9A30.83,30.83,0,0,0,49.22,85.77Zm-3.87,0a30.59,30.59,0,0,0-4.16.13c-11.77-1.18-23.95-9-29.16-19.35,11.53-.66,24.43,6,31.34,15.57A30.43,30.43,0,0,0,45.35,85.77Zm-1.12,2.29c.38,0,.76,0,1.14,0a29.59,29.59,0,0,0-2,3.68c-6.91,9.6-19.8,16.21-31.34,15.57,5.21-10.32,17.41-18.2,29.19-19.36C42.22,88,43.23,88.06,44.23,88.06Zm.9,4.59a31.48,31.48,0,0,0,2.16-3.53,31.48,31.48,0,0,0,2.16,3.53c4.88,10.78,4.17,25.29-2.16,35C41,117.94,40.24,103.43,45.13,92.65Zm3.16,42.87c8.54,10.14,17.52,19.78,25.92,28.31H48.29ZM47.34,40.8a45.33,45.33,0,0,1,.9,90.66,1,1,0,0,0-.68-.72l.91-1.3c6.11-8.75,7.66-21.58,4.67-32.42C60.4,104.41,71.06,109.3,81,109.3c.85,0,1.69,0,2.53-.11l2-.17-.87-1.87C80.2,97.48,69.86,89.72,59,86.89,69.86,84.07,80.2,76.32,84.72,66.66l.87-1.87-2-.18C72.92,63.7,61,68.76,53.14,76.76c3-10.83,1.44-23.65-4.67-32.39l-1.18-1.69-1.18,1.69C40,53.11,38.45,65.93,41.43,76.75c-7.88-8-19.76-13.06-30.39-12.14l-2,.18.87,1.87C14.38,76.33,24.72,84.08,35.6,86.9,24.72,89.72,14.38,97.48,9.86,107.15L9,109l2,.17c.83.08,1.67.11,2.52.11,10,0,20.61-4.89,27.88-12.28-3,10.84-1.45,23.67,4.67,32.42l.9,1.3a1,1,0,0,0-.72.94v32.77C22.81,138.58,2,109.17,2,86.14A45.39,45.39,0,0,1,47.34,40.8Zm.21,125h28.5v28.7C67,186,57.06,176.22,47.55,165.83Zm98.31,28.78V166.39H174C164.56,176.61,154.82,186.22,145.86,194.61Z"/><path class="cls-1" d="M67,35.71a14.72,14.72,0,0,0,4.7,2.54l.26.07c.34.1.68.2,1,.27l.19,0a4.38,4.38,0,0,0,.51.09l.59.08a13.26,13.26,0,0,0,1.43.08,11.51,11.51,0,0,0,1.31-.08,12.78,12.78,0,0,0,9.12-5.17,11.25,11.25,0,0,0,.73-1.19l.09-.16A2.33,2.33,0,0,0,87.1,32l.19-.43a4.49,4.49,0,0,0,.17-.44,10.76,10.76,0,0,0,.6-2.76,11.68,11.68,0,0,0-.85-5.31,10.89,10.89,0,0,0-1.4-2.41,9.3,9.3,0,0,0-2-1.92,9,9,0,0,0-5.35-1.71,6.57,6.57,0,0,0-1.4.16l-.33.07-.44.13a7.65,7.65,0,0,0-.73.28,7.94,7.94,0,0,0-2.37,1.62A10,10,0,0,0,70.53,24l-.15.64a5.55,5.55,0,0,0-.1.61,11.27,11.27,0,0,0-.13,1.28,1,1,0,0,0,2,.1,8.9,8.9,0,0,1,.11-1.1c0-.19,0-.35.08-.51l.13-.52a8.08,8.08,0,0,1,2.13-3.73,6.31,6.31,0,0,1,1.77-1.22l.53-.2.53-.15a5.58,5.58,0,0,1,1.08-.12,6.73,6.73,0,0,1,4.17,1.35,7.93,7.93,0,0,1,1.55,1.5,9,9,0,0,1,1.13,1.95,9.52,9.52,0,0,1,.7,4.39,8.61,8.61,0,0,1-.5,2.29c0,.1-.06.17-.09.25a1.54,1.54,0,0,0-.09.19l-.23.5a8.3,8.3,0,0,1-.6,1,10.83,10.83,0,0,1-7.73,4.36c-.35,0-.72,0-1.12.06s-.82,0-1.15-.06L74,36.74l-.34-.06-.25-.06a8.59,8.59,0,0,1-.84-.21l-.24-.07a13,13,0,0,1-4-2.19,14.85,14.85,0,0,1-5-7.6,16.1,16.1,0,0,1-.6-4.58,16.82,16.82,0,0,1,.21-2.35,15.47,15.47,0,0,1,.46-1.91l.08-.3a16.59,16.59,0,0,1,2.07-4.15,18.26,18.26,0,0,1,3.15-3.43,20.42,20.42,0,0,1,8.25-4.2,12.37,12.37,0,0,1,1.61-.33l.63-.11.58-.05a11.73,11.73,0,0,1,1.75-.09A19.37,19.37,0,0,1,86,5.53a25.26,25.26,0,0,1,8.44,3.56A32.1,32.1,0,0,1,106,22.83a50.55,50.55,0,0,1,4,15V83.77a127.83,127.83,0,0,1-2,18.37c-.21,1.11-.43,2.19-.66,3.25L107,107c-.08.35-.17.68-.25,1l-.15.54c-.46,1.84-1,3.76-1.78,6a72.65,72.65,0,0,1-4.56,10.64,63,63,0,0,1-5.41,8.65c-.59.87-1.25,1.67-1.89,2.45l-.88,1.08c-.3.36-.61.69-.91,1l-.5.55-.45.49c-.31.34-.59.66-.93,1A51.63,51.63,0,0,1,79.8,148a17.06,17.06,0,0,1-1.55.91l-2.19,1.21a1,1,0,1,0,1,1.75l2.19-1.2a19,19,0,0,0,1.67-1,53.05,53.05,0,0,0,9.78-7.8,12.89,12.89,0,0,0,1-1.07l.45-.48.49-.55c.32-.34.64-.69,1-1.09s.58-.73.88-1.09c.66-.81,1.35-1.65,2-2.54a66.78,66.78,0,0,0,5.55-8.9,73.63,73.63,0,0,0,4.68-10.94c.78-2.31,1.36-4.27,1.83-6.16l.14-.52c.09-.35.19-.71.27-1.08l.39-1.64c.24-1.08.47-2.19.68-3.32l0-.2v79a1,1,0,0,0,2,0v-79a1.29,1.29,0,0,1,0,.19c.21,1.13.44,2.24.7,3.42l.36,1.53c.09.38.18.74.28,1.09l.13.52c.48,1.89,1.06,3.85,1.84,6.16a72.59,72.59,0,0,0,4.68,10.94,65.66,65.66,0,0,0,5.52,8.86c.65.93,1.34,1.77,2,2.58.3.36.6.72.91,1.12s.63.71.95,1.06l.51.56.43.47c.33.36.66.73,1,1a52.78,52.78,0,0,0,9.77,7.8c.63.43,1.22.75,1.71,1l2.19,1.2a1.07,1.07,0,0,0,.49.12,1,1,0,0,0,.87-.51,1,1,0,0,0-.39-1.36l-2.21-1.21c-.45-.25-1-.54-1.58-.94a51.36,51.36,0,0,1-9.47-7.56c-.3-.28-.59-.6-.89-.94l-.44-.48-.52-.57c-.3-.32-.61-.66-.88-1l-.9-1.12c-.64-.78-1.3-1.58-1.92-2.48a61.69,61.69,0,0,1-5.38-8.62,72.65,72.65,0,0,1-4.56-10.64c-.76-2.26-1.33-4.18-1.79-6l-.14-.54c-.09-.33-.18-.66-.26-1l-.38-1.62c-.23-1.07-.46-2.15-.67-3.26a129.26,129.26,0,0,1-2-18.37V37.86a50.55,50.55,0,0,1,4-15A31.94,31.94,0,0,1,127.61,9.1a25.09,25.09,0,0,1,8.44-3.57A20,20,0,0,1,140.69,5a15.22,15.22,0,0,1,1.7.1l.58.05.63.11a13,13,0,0,1,1.65.34,20.47,20.47,0,0,1,8.22,4.19,18.43,18.43,0,0,1,3.13,3.42,16.3,16.3,0,0,1,2.06,4.11l.1.37a14.65,14.65,0,0,1,.46,1.91,16.27,16.27,0,0,1,.2,2.33,15.42,15.42,0,0,1-.6,4.58,14.73,14.73,0,0,1-5,7.6,12.59,12.59,0,0,1-4,2.17l-.27.09a8.59,8.59,0,0,1-.84.21l-.26.06-.34.06-.54.07a11.17,11.17,0,0,1-1.18.07,11.3,11.3,0,0,1-8.86-4.44,8.29,8.29,0,0,1-.58-1l-.08-.14-.87.49.83-.58-.1-.23c0-.08-.07-.15-.1-.22a2.63,2.63,0,0,1-.11-.29,8.76,8.76,0,0,1-.48-2.24,9.47,9.47,0,0,1,.7-4.41A9.18,9.18,0,0,1,137.82,22a7.87,7.87,0,0,1,1.62-1.58,6.8,6.8,0,0,1,4.13-1.32,5.33,5.33,0,0,1,1.11.13l.46.12.55.21a6.09,6.09,0,0,1,1.79,1.23,8,8,0,0,1,2.14,3.71l.12.55a5,5,0,0,1,.09.52,10.41,10.41,0,0,1,.11,1.08,1,1,0,1,0,2-.1,10.59,10.59,0,0,0-.12-1.26c0-.24-.07-.43-.1-.62l-.16-.67a10.05,10.05,0,0,0-2.67-4.64,8.13,8.13,0,0,0-2.4-1.64c-.23-.09-.48-.19-.74-.27l-.36-.1a1.71,1.71,0,0,0-.3-.08,7.22,7.22,0,0,0-1.48-.17,9.11,9.11,0,0,0-5.31,1.69,9.45,9.45,0,0,0-2,2,11.31,11.31,0,0,0-1.36,2.36,11.65,11.65,0,0,0-.85,5.34,11.15,11.15,0,0,0,.58,2.71,3.05,3.05,0,0,0,.19.47l.19.44.12.26.07.13a10.56,10.56,0,0,0,.72,1.17A12.81,12.81,0,0,0,145,38.8a12.62,12.62,0,0,0,1.38.08,13.79,13.79,0,0,0,1.41-.08l.56-.08a4.59,4.59,0,0,0,.52-.09l.18,0c.36-.07.7-.17,1-.27l.3-.08a14.74,14.74,0,0,0,4.65-2.52,16.86,16.86,0,0,0,5.7-8.62,18,18,0,0,0,.67-5.16,18.48,18.48,0,0,0-.22-2.6,17,17,0,0,0-.51-2.16l-.12-.42a18.24,18.24,0,0,0-2.35-4.67,19.83,19.83,0,0,0-3.47-3.79,22.49,22.49,0,0,0-9-4.59,14.49,14.49,0,0,0-1.85-.38l-.65-.11-.7-.07a16.37,16.37,0,0,0-1.9-.1,21.63,21.63,0,0,0-5,.52,27.12,27.12,0,0,0-9.12,3.85A34,34,0,0,0,114.27,22,46.11,46.11,0,0,0,112,28V1a1,1,0,0,0-2,0V28a44.53,44.53,0,0,0-2.22-6A34.09,34.09,0,0,0,95.56,7.41a27.25,27.25,0,0,0-9.11-3.84,21.41,21.41,0,0,0-5-.52,14.71,14.71,0,0,0-2,.1l-.61.05-.09,0-.65.11a14.17,14.17,0,0,0-1.81.37,22.54,22.54,0,0,0-9,4.59,20.28,20.28,0,0,0-3.49,3.8,18.66,18.66,0,0,0-2.36,4.73l-.1.35a17.67,17.67,0,0,0-.51,2.15,19,19,0,0,0-.23,2.62,17.87,17.87,0,0,0,.68,5.15A16.83,16.83,0,0,0,67,35.71Z"/><path class="cls-1" d="M120.27,46a5.24,5.24,0,1,0,5.23-5.23A5.23,5.23,0,0,0,120.27,46Zm8.47,0a3.24,3.24,0,1,1-3.24-3.23A3.24,3.24,0,0,1,128.74,46Z"/><path class="cls-1" d="M101,46a5.23,5.23,0,1,0-5.23,5.23A5.24,5.24,0,0,0,101,46Zm-5.23,3.23A3.23,3.23,0,1,1,99,46,3.23,3.23,0,0,1,95.77,49.21Z"/><path class="cls-1" d="M33.08,119.71a2.82,2.82,0,1,0,2.82,2.82A2.82,2.82,0,0,0,33.08,119.71Z"/><path class="cls-1" d="M188.2,119.71a2.82,2.82,0,1,0,2.82,2.82A2.82,2.82,0,0,0,188.2,119.71Z"/></g></g></svg>