<svg xmlns="http://www.w3.org/2000/svg" viewBox="0 0 46.67 50"><title>Zasób 70zak_</title><g id="Warstwa_2" data-name="Warstwa 2"><g id="Warstwa_1-2" data-name="Warstwa 1"><path d="M10.45,0A10.46,10.46,0,1,0,20.91,10.45,10.46,10.46,0,0,0,10.45,0Zm5.71,10.45a5.71,5.71,0,1,1-5.71-5.7A5.71,5.71,0,0,1,16.16,10.45Z"/><path d="M10.45,29.09A10.46,10.46,0,1,0,20.91,39.55,10.47,10.47,0,0,0,10.45,29.09Zm5.71,10.46a5.71,5.71,0,1,1-5.71-5.71A5.71,5.71,0,0,1,16.16,39.55Z"/><path d="M36.21,14.55A10.45,10.45,0,1,0,46.67,25,10.46,10.46,0,0,0,36.21,14.55ZM41.92,25a5.71,5.71,0,1,1-5.71-5.71A5.71,5.71,0,0,1,41.92,25Z"/></g></g></svg>